%TF.GenerationSoftware,KiCad,Pcbnew,8.0.7-1.fc41*%
%TF.CreationDate,2025-01-19T14:43:59-06:00*%
%TF.ProjectId,Expansion_Card,45787061-6e73-4696-9f6e-5f436172642e,X1*%
%TF.SameCoordinates,Original*%
%TF.FileFunction,Soldermask,Top*%
%TF.FilePolarity,Negative*%
%FSLAX46Y46*%
G04 Gerber Fmt 4.6, Leading zero omitted, Abs format (unit mm)*
G04 Created by KiCad (PCBNEW 8.0.7-1.fc41) date 2025-01-19 14:43:59*
%MOMM*%
%LPD*%
G01*
G04 APERTURE LIST*
G04 Aperture macros list*
%AMRoundRect*
0 Rectangle with rounded corners*
0 $1 Rounding radius*
0 $2 $3 $4 $5 $6 $7 $8 $9 X,Y pos of 4 corners*
0 Add a 4 corners polygon primitive as box body*
4,1,4,$2,$3,$4,$5,$6,$7,$8,$9,$2,$3,0*
0 Add four circle primitives for the rounded corners*
1,1,$1+$1,$2,$3*
1,1,$1+$1,$4,$5*
1,1,$1+$1,$6,$7*
1,1,$1+$1,$8,$9*
0 Add four rect primitives between the rounded corners*
20,1,$1+$1,$2,$3,$4,$5,0*
20,1,$1+$1,$4,$5,$6,$7,0*
20,1,$1+$1,$6,$7,$8,$9,0*
20,1,$1+$1,$8,$9,$2,$3,0*%
%AMRotRect*
0 Rectangle, with rotation*
0 The origin of the aperture is its center*
0 $1 length*
0 $2 width*
0 $3 Rotation angle, in degrees counterclockwise*
0 Add horizontal line*
21,1,$1,$2,0,0,$3*%
G04 Aperture macros list end*
%ADD10R,0.650000X1.060000*%
%ADD11RoundRect,0.250000X0.250000X0.475000X-0.250000X0.475000X-0.250000X-0.475000X0.250000X-0.475000X0*%
%ADD12RoundRect,0.200000X0.200000X0.275000X-0.200000X0.275000X-0.200000X-0.275000X0.200000X-0.275000X0*%
%ADD13R,0.380000X1.000000*%
%ADD14R,0.700000X1.150000*%
%ADD15R,1.500000X1.500000*%
%ADD16RoundRect,0.135000X-0.226274X-0.035355X-0.035355X-0.226274X0.226274X0.035355X0.035355X0.226274X0*%
%ADD17RoundRect,0.135000X0.226274X0.035355X0.035355X0.226274X-0.226274X-0.035355X-0.035355X-0.226274X0*%
%ADD18RoundRect,0.140000X-0.170000X0.140000X-0.170000X-0.140000X0.170000X-0.140000X0.170000X0.140000X0*%
%ADD19RoundRect,0.135000X0.135000X0.185000X-0.135000X0.185000X-0.135000X-0.185000X0.135000X-0.185000X0*%
%ADD20RoundRect,0.140000X-0.219203X-0.021213X-0.021213X-0.219203X0.219203X0.021213X0.021213X0.219203X0*%
%ADD21RoundRect,0.140000X0.140000X0.170000X-0.140000X0.170000X-0.140000X-0.170000X0.140000X-0.170000X0*%
%ADD22RoundRect,0.140000X0.219203X0.021213X0.021213X0.219203X-0.219203X-0.021213X-0.021213X-0.219203X0*%
%ADD23RotRect,0.254000X0.812800X135.000000*%
%ADD24RotRect,0.254000X0.812800X45.000000*%
%ADD25RotRect,7.493000X7.493000X45.000000*%
%ADD26RoundRect,0.140000X-0.140000X-0.170000X0.140000X-0.170000X0.140000X0.170000X-0.140000X0.170000X0*%
%ADD27RoundRect,0.140000X0.170000X-0.140000X0.170000X0.140000X-0.170000X0.140000X-0.170000X-0.140000X0*%
%ADD28R,0.850000X1.100000*%
%ADD29R,0.750000X1.100000*%
%ADD30R,1.200000X1.000000*%
%ADD31R,1.550000X1.350000*%
%ADD32R,1.900000X1.350000*%
%ADD33R,1.170000X1.800000*%
%ADD34RoundRect,0.140000X0.021213X-0.219203X0.219203X-0.021213X-0.021213X0.219203X-0.219203X0.021213X0*%
%ADD35R,0.600000X0.500000*%
%ADD36RoundRect,0.140000X-0.021213X0.219203X-0.219203X0.021213X0.021213X-0.219203X0.219203X-0.021213X0*%
%ADD37RoundRect,0.135000X0.035355X-0.226274X0.226274X-0.035355X-0.035355X0.226274X-0.226274X0.035355X0*%
%ADD38C,1.100000*%
%ADD39C,1.600000*%
G04 APERTURE END LIST*
D10*
%TO.C,U1*%
X131400000Y-130500000D03*
X130450000Y-130500000D03*
X129500000Y-130500000D03*
X129500000Y-132700000D03*
X131400000Y-132700000D03*
%TD*%
D11*
%TO.C,C1*%
X131400000Y-128500000D03*
X129500000Y-128500000D03*
%TD*%
D12*
%TO.C,R1*%
X136425000Y-131700000D03*
X134775000Y-131700000D03*
%TD*%
D13*
%TO.C,P1*%
X137250000Y-129040000D03*
X137750000Y-129040000D03*
X138250000Y-129040000D03*
X138750000Y-129040000D03*
X139250000Y-129040000D03*
X139750000Y-129040000D03*
X140250000Y-129040000D03*
X140750000Y-129040000D03*
X141250000Y-129040000D03*
X141750000Y-129040000D03*
X142250000Y-129040000D03*
X142750000Y-129040000D03*
D14*
X136580000Y-129880000D03*
%TD*%
D11*
%TO.C,C2*%
X131400000Y-134600000D03*
X129500000Y-134600000D03*
%TD*%
D15*
%TO.C,TP1*%
X134300000Y-128000000D03*
%TD*%
%TO.C,TP3*%
X145700000Y-128000000D03*
%TD*%
D16*
%TO.C,R5*%
X141700000Y-131700000D03*
X142421248Y-132421248D03*
%TD*%
D17*
%TO.C,R2*%
X138521248Y-136221248D03*
X137800000Y-135500000D03*
%TD*%
D18*
%TO.C,C15*%
X144600000Y-144920000D03*
X144600000Y-145880000D03*
%TD*%
D19*
%TO.C,R4*%
X146809999Y-129800000D03*
X145790001Y-129800000D03*
%TD*%
D20*
%TO.C,C7*%
X150021178Y-142821178D03*
X150700000Y-143500000D03*
%TD*%
D21*
%TO.C,C13*%
X137840000Y-138350000D03*
X136880000Y-138350000D03*
%TD*%
D22*
%TO.C,C17*%
X141699999Y-133114213D03*
X141021177Y-132435391D03*
%TD*%
D23*
%TO.C,U2*%
X139441181Y-138055518D03*
X139794734Y-138409071D03*
X140148288Y-138762625D03*
X140501840Y-139116178D03*
X140855395Y-139469732D03*
X141208948Y-139823285D03*
X141562501Y-140176838D03*
X141916055Y-140530392D03*
X142269608Y-140883945D03*
X142623162Y-141237499D03*
X142976715Y-141591052D03*
X143330268Y-141944605D03*
X143683822Y-142298160D03*
X144037375Y-142651712D03*
X144390929Y-143005266D03*
X144744482Y-143358819D03*
D24*
X145655518Y-143358819D03*
X146009071Y-143005266D03*
X146362625Y-142651712D03*
X146716178Y-142298160D03*
X147069732Y-141944605D03*
X147423285Y-141591052D03*
X147776838Y-141237499D03*
X148130392Y-140883945D03*
X148483945Y-140530392D03*
X148837499Y-140176838D03*
X149191052Y-139823285D03*
X149544605Y-139469732D03*
X149898160Y-139116178D03*
X150251712Y-138762625D03*
X150605266Y-138409071D03*
X150958819Y-138055518D03*
D23*
X150958819Y-137144482D03*
X150605266Y-136790929D03*
X150251712Y-136437375D03*
X149898160Y-136083822D03*
X149544605Y-135730268D03*
X149191052Y-135376715D03*
X148837499Y-135023162D03*
X148483945Y-134669608D03*
X148130392Y-134316055D03*
X147776838Y-133962501D03*
X147423285Y-133608948D03*
X147069732Y-133255395D03*
X146716178Y-132901840D03*
X146362625Y-132548288D03*
X146009071Y-132194734D03*
X145655518Y-131841181D03*
D24*
X144744482Y-131841181D03*
X144390929Y-132194734D03*
X144037375Y-132548288D03*
X143683822Y-132901840D03*
X143330268Y-133255395D03*
X142976715Y-133608948D03*
X142623162Y-133962501D03*
X142269608Y-134316055D03*
X141916055Y-134669608D03*
X141562501Y-135023162D03*
X141208948Y-135376715D03*
X140855395Y-135730268D03*
X140501840Y-136083822D03*
X140148288Y-136437375D03*
X139794734Y-136790929D03*
X139441181Y-137144482D03*
D25*
X145200000Y-137600000D03*
%TD*%
D26*
%TO.C,C16*%
X149840000Y-131000000D03*
X150800000Y-131000000D03*
%TD*%
D27*
%TO.C,C9*%
X151600000Y-135380000D03*
X151600000Y-134420000D03*
%TD*%
D28*
%TO.C,J1*%
X137005001Y-155862500D03*
X135905000Y-155862500D03*
X134805001Y-155862500D03*
X133705000Y-155862500D03*
X132605000Y-155862500D03*
X131505000Y-155862500D03*
X130405000Y-155862500D03*
D29*
X129355000Y-155862500D03*
D30*
X139640000Y-149712500D03*
X139640000Y-146012500D03*
D31*
X139465000Y-155737500D03*
D32*
X136140000Y-145037500D03*
X130170000Y-145037500D03*
D33*
X128145000Y-155512500D03*
%TD*%
D22*
%TO.C,C3*%
X139239411Y-135439411D03*
X138560589Y-134760589D03*
%TD*%
D34*
%TO.C,C11*%
X146921178Y-131278822D03*
X147600000Y-130600000D03*
%TD*%
D35*
%TO.C,X1*%
X134400000Y-134700000D03*
X135500000Y-134700000D03*
X135500000Y-133900000D03*
X134400000Y-133900000D03*
%TD*%
D22*
%TO.C,C12*%
X140839411Y-134039411D03*
X140160589Y-133360589D03*
%TD*%
D18*
%TO.C,C6*%
X143500000Y-144140000D03*
X143500000Y-145100000D03*
%TD*%
D36*
%TO.C,C5*%
X139939411Y-140360589D03*
X139260589Y-141039411D03*
%TD*%
D20*
%TO.C,C8*%
X149264574Y-143577782D03*
X149943396Y-144256604D03*
%TD*%
D37*
%TO.C,R3*%
X139478752Y-132421248D03*
X140200000Y-131700000D03*
%TD*%
D34*
%TO.C,C10*%
X148760589Y-133039411D03*
X149439411Y-132360589D03*
%TD*%
D27*
%TO.C,C4*%
X148400000Y-146080000D03*
X148400000Y-145120000D03*
%TD*%
D26*
%TO.C,C14*%
X136920000Y-137280000D03*
X137880000Y-137280000D03*
%TD*%
D38*
%TO.C,J2*%
X151275000Y-141750000D03*
D39*
X130275000Y-141750000D03*
%TD*%
M02*
