%TF.GenerationSoftware,KiCad,Pcbnew,8.0.7-1.fc41*%
%TF.CreationDate,2025-01-19T14:38:01-06:00*%
%TF.ProjectId,Expansion_Card,45787061-6e73-4696-9f6e-5f436172642e,X1*%
%TF.SameCoordinates,Original*%
%TF.FileFunction,Drillmap*%
%TF.FilePolarity,Positive*%
%FSLAX45Y45*%
G04 Gerber Fmt 4.5, Leading zero omitted, Abs format (unit mm)*
G04 Created by KiCad (PCBNEW 8.0.7-1.fc41) date 2025-01-19 14:38:01*
%MOMM*%
%LPD*%
G01*
G04 APERTURE LIST*
%ADD10C,0.050000*%
%ADD11C,0.200000*%
%ADD12C,0.100000*%
G04 APERTURE END LIST*
D10*
X15300000Y-13080000D02*
X15300000Y-13890000D01*
X12541213Y-15700000D02*
X15270000Y-15700000D01*
X14470000Y-12870000D02*
G75*
G02*
X14440000Y-12900000I-30000J0D01*
G01*
X13500000Y-12700000D02*
G75*
G02*
X13530000Y-12730000I0J-30000D01*
G01*
X14470000Y-12870000D02*
X14470000Y-12730000D01*
X14470000Y-12730000D02*
G75*
G02*
X14500000Y-12700000I30000J0D01*
G01*
X13500000Y-12700000D02*
X12830000Y-12700000D01*
X14500000Y-12700000D02*
X15170000Y-12700000D01*
X12541213Y-15700000D02*
G75*
G02*
X12511210Y-15670000I-3J30000D01*
G01*
X14430000Y-12900000D02*
X14440000Y-12900000D01*
X12800000Y-12730000D02*
G75*
G02*
X12830000Y-12700000I30000J0D01*
G01*
X12800000Y-13020000D02*
X12800000Y-12730000D01*
X12800000Y-13020000D02*
G75*
G02*
X12770000Y-13050000I-30000J0D01*
G01*
X12700000Y-13080000D02*
G75*
G02*
X12730000Y-13050000I30000J0D01*
G01*
X12730000Y-13050000D02*
X12770000Y-13050000D01*
X15200000Y-13020000D02*
X15200000Y-12730000D01*
X15270000Y-13050000D02*
G75*
G02*
X15300000Y-13080000I0J-30000D01*
G01*
X15230000Y-13050000D02*
G75*
G02*
X15200000Y-13020000I0J30000D01*
G01*
X15230000Y-13050000D02*
X15270000Y-13050000D01*
X13560000Y-12900000D02*
G75*
G02*
X13530000Y-12870000I0J30000D01*
G01*
X15410000Y-13920000D02*
X15330000Y-13920000D01*
X15410000Y-13920000D02*
G75*
G02*
X15440000Y-13950000I0J-30000D01*
G01*
X12700000Y-13080000D02*
X12700000Y-15340000D01*
X13560000Y-12900000D02*
X13570000Y-12900000D01*
X12541213Y-15370000D02*
X12670000Y-15370000D01*
X15170000Y-12700000D02*
G75*
G02*
X15200000Y-12730000I0J-30000D01*
G01*
X15440000Y-15670000D02*
G75*
G02*
X15410000Y-15700000I-30000J0D01*
G01*
X12511213Y-15400000D02*
G75*
G02*
X12541213Y-15370003I29997J0D01*
G01*
X13530000Y-12870000D02*
X13530000Y-12730000D01*
X15270000Y-15700000D02*
X15410000Y-15700000D01*
X15330000Y-13920000D02*
G75*
G02*
X15300000Y-13890000I0J30000D01*
G01*
X15440000Y-15670000D02*
X15440000Y-13950000D01*
X12511213Y-15670000D02*
X12511213Y-15400000D01*
X12700000Y-15340000D02*
G75*
G02*
X12670000Y-15370000I-30000J0D01*
G01*
X13665000Y-12900000D02*
X13570000Y-12900000D01*
X13695000Y-12834000D02*
X13695000Y-12870000D01*
X13725000Y-12804000D02*
X14275000Y-12804000D01*
X14305000Y-12834000D02*
X14305000Y-12870000D01*
X14335000Y-12900000D02*
X14430000Y-12900000D01*
X13695000Y-12834000D02*
G75*
G02*
X13725000Y-12804000I30000J0D01*
G01*
X13695000Y-12870000D02*
G75*
G02*
X13665000Y-12900000I-30000J0D01*
G01*
X14275000Y-12804000D02*
G75*
G02*
X14305000Y-12834000I0J-30000D01*
G01*
X14335000Y-12900000D02*
G75*
G02*
X14305000Y-12870000I0J30000D01*
G01*
D11*
D12*
X13080000Y-14680000D02*
X13120000Y-14720000D01*
X13120000Y-14680000D02*
X13080000Y-14720000D01*
X13180000Y-15420000D02*
X13220000Y-15460000D01*
X13220000Y-15420000D02*
X13180000Y-15460000D01*
X13310000Y-13140000D02*
X13350000Y-13180000D01*
X13350000Y-13140000D02*
X13310000Y-13180000D01*
X13331875Y-13042422D02*
X13371875Y-13082422D01*
X13371875Y-13042422D02*
X13331875Y-13082422D01*
X13410000Y-12980000D02*
X13450000Y-13020000D01*
X13450000Y-12980000D02*
X13410000Y-13020000D01*
X13450000Y-13260000D02*
X13490000Y-13300000D01*
X13490000Y-13260000D02*
X13450000Y-13300000D01*
X13700000Y-13470000D02*
X13740000Y-13510000D01*
X13740000Y-13470000D02*
X13700000Y-13510000D01*
X13720000Y-14060000D02*
X13760000Y-14100000D01*
X13760000Y-14060000D02*
X13720000Y-14100000D01*
X13733251Y-13278880D02*
X13773251Y-13318880D01*
X13773251Y-13278880D02*
X13733251Y-13318880D01*
X13827249Y-13181620D02*
X13867249Y-13221620D01*
X13867249Y-13181620D02*
X13827249Y-13221620D01*
X13880000Y-13930000D02*
X13920000Y-13970000D01*
X13920000Y-13930000D02*
X13880000Y-13970000D01*
X13940000Y-13080000D02*
X13980000Y-13120000D01*
X13980000Y-13080000D02*
X13940000Y-13120000D01*
X13979863Y-14199863D02*
X14019863Y-14239863D01*
X14019863Y-14199863D02*
X13979863Y-14239863D01*
X14010000Y-15380000D02*
X14050000Y-15420000D01*
X14050000Y-15380000D02*
X14010000Y-15420000D01*
X14025776Y-13028595D02*
X14065776Y-13068595D01*
X14065776Y-13028595D02*
X14025776Y-13068595D01*
X14051854Y-13384714D02*
X14091854Y-13424714D01*
X14091854Y-13384714D02*
X14051854Y-13424714D01*
X14067185Y-14937185D02*
X14107185Y-14977185D01*
X14107185Y-14937185D02*
X14067185Y-14977185D01*
X14170000Y-14430000D02*
X14210000Y-14470000D01*
X14210000Y-14430000D02*
X14170000Y-14470000D01*
X14170000Y-14580000D02*
X14210000Y-14620000D01*
X14210000Y-14580000D02*
X14170000Y-14620000D01*
X14200000Y-13037620D02*
X14240000Y-13077620D01*
X14240000Y-13037620D02*
X14200000Y-13077620D01*
X14288809Y-13646820D02*
X14328809Y-13686820D01*
X14328809Y-13646820D02*
X14288809Y-13686820D01*
X14500000Y-13810000D02*
X14540000Y-13850000D01*
X14540000Y-13810000D02*
X14500000Y-13850000D01*
X14580000Y-13060000D02*
X14620000Y-13100000D01*
X14620000Y-13060000D02*
X14580000Y-13100000D01*
X14677328Y-14637328D02*
X14717328Y-14677328D01*
X14717328Y-14637328D02*
X14677328Y-14677328D01*
X14720000Y-12780000D02*
X14760000Y-12820000D01*
X14760000Y-12780000D02*
X14720000Y-12820000D01*
X14731061Y-14721665D02*
X14771061Y-14761665D01*
X14771061Y-14721665D02*
X14731061Y-14761665D01*
X14790000Y-13150000D02*
X14830000Y-13190000D01*
X14830000Y-13150000D02*
X14790000Y-13190000D01*
X14823747Y-13646820D02*
X14863747Y-13686820D01*
X14863747Y-13646820D02*
X14823747Y-13686820D01*
X14847334Y-12974921D02*
X14887334Y-13014921D01*
X14887334Y-12974921D02*
X14847334Y-13014921D01*
X14910000Y-14710000D02*
X14950000Y-14750000D01*
X14950000Y-14710000D02*
X14910000Y-14750000D01*
X14911000Y-14580714D02*
X14951000Y-14620714D01*
X14951000Y-14580714D02*
X14911000Y-14620714D01*
X14937815Y-14122185D02*
X14977815Y-14162185D01*
X14977815Y-14122185D02*
X14937815Y-14162185D01*
X15010000Y-14050000D02*
X15050000Y-14090000D01*
X15050000Y-14050000D02*
X15010000Y-14090000D01*
X15030000Y-13380000D02*
X15070000Y-13420000D01*
X15070000Y-13380000D02*
X15030000Y-13420000D01*
X15030000Y-13480000D02*
X15070000Y-13520000D01*
X15070000Y-13480000D02*
X15030000Y-13520000D01*
X15084096Y-13199428D02*
X15124096Y-13239428D01*
X15124096Y-13199428D02*
X15084096Y-13239428D01*
X15104868Y-14018377D02*
X15144868Y-14058377D01*
X15144868Y-14018377D02*
X15104868Y-14058377D01*
X15120000Y-13310000D02*
X15160000Y-13350000D01*
X15160000Y-13310000D02*
X15120000Y-13350000D01*
X15210000Y-13610000D02*
X15250000Y-13650000D01*
X15250000Y-13610000D02*
X15210000Y-13650000D01*
D11*
X12769490Y-16013984D02*
X12769490Y-15813984D01*
X12769490Y-15813984D02*
X12817109Y-15813984D01*
X12817109Y-15813984D02*
X12845680Y-15823508D01*
X12845680Y-15823508D02*
X12864728Y-15842555D01*
X12864728Y-15842555D02*
X12874252Y-15861603D01*
X12874252Y-15861603D02*
X12883776Y-15899698D01*
X12883776Y-15899698D02*
X12883776Y-15928269D01*
X12883776Y-15928269D02*
X12874252Y-15966365D01*
X12874252Y-15966365D02*
X12864728Y-15985412D01*
X12864728Y-15985412D02*
X12845680Y-16004460D01*
X12845680Y-16004460D02*
X12817109Y-16013984D01*
X12817109Y-16013984D02*
X12769490Y-16013984D01*
X12969490Y-16013984D02*
X12969490Y-15880650D01*
X12969490Y-15918746D02*
X12979014Y-15899698D01*
X12979014Y-15899698D02*
X12988538Y-15890174D01*
X12988538Y-15890174D02*
X13007585Y-15880650D01*
X13007585Y-15880650D02*
X13026633Y-15880650D01*
X13093299Y-16013984D02*
X13093299Y-15880650D01*
X13093299Y-15813984D02*
X13083776Y-15823508D01*
X13083776Y-15823508D02*
X13093299Y-15833031D01*
X13093299Y-15833031D02*
X13102823Y-15823508D01*
X13102823Y-15823508D02*
X13093299Y-15813984D01*
X13093299Y-15813984D02*
X13093299Y-15833031D01*
X13217109Y-16013984D02*
X13198061Y-16004460D01*
X13198061Y-16004460D02*
X13188538Y-15985412D01*
X13188538Y-15985412D02*
X13188538Y-15813984D01*
X13321871Y-16013984D02*
X13302823Y-16004460D01*
X13302823Y-16004460D02*
X13293299Y-15985412D01*
X13293299Y-15985412D02*
X13293299Y-15813984D01*
X13550442Y-16013984D02*
X13550442Y-15813984D01*
X13550442Y-15813984D02*
X13617109Y-15956841D01*
X13617109Y-15956841D02*
X13683776Y-15813984D01*
X13683776Y-15813984D02*
X13683776Y-16013984D01*
X13864728Y-16013984D02*
X13864728Y-15909222D01*
X13864728Y-15909222D02*
X13855204Y-15890174D01*
X13855204Y-15890174D02*
X13836157Y-15880650D01*
X13836157Y-15880650D02*
X13798061Y-15880650D01*
X13798061Y-15880650D02*
X13779014Y-15890174D01*
X13864728Y-16004460D02*
X13845680Y-16013984D01*
X13845680Y-16013984D02*
X13798061Y-16013984D01*
X13798061Y-16013984D02*
X13779014Y-16004460D01*
X13779014Y-16004460D02*
X13769490Y-15985412D01*
X13769490Y-15985412D02*
X13769490Y-15966365D01*
X13769490Y-15966365D02*
X13779014Y-15947317D01*
X13779014Y-15947317D02*
X13798061Y-15937793D01*
X13798061Y-15937793D02*
X13845680Y-15937793D01*
X13845680Y-15937793D02*
X13864728Y-15928269D01*
X13959966Y-15880650D02*
X13959966Y-16080650D01*
X13959966Y-15890174D02*
X13979014Y-15880650D01*
X13979014Y-15880650D02*
X14017109Y-15880650D01*
X14017109Y-15880650D02*
X14036157Y-15890174D01*
X14036157Y-15890174D02*
X14045680Y-15899698D01*
X14045680Y-15899698D02*
X14055204Y-15918746D01*
X14055204Y-15918746D02*
X14055204Y-15975888D01*
X14055204Y-15975888D02*
X14045680Y-15994936D01*
X14045680Y-15994936D02*
X14036157Y-16004460D01*
X14036157Y-16004460D02*
X14017109Y-16013984D01*
X14017109Y-16013984D02*
X13979014Y-16013984D01*
X13979014Y-16013984D02*
X13959966Y-16004460D01*
X14140919Y-15994936D02*
X14150442Y-16004460D01*
X14150442Y-16004460D02*
X14140919Y-16013984D01*
X14140919Y-16013984D02*
X14131395Y-16004460D01*
X14131395Y-16004460D02*
X14140919Y-15994936D01*
X14140919Y-15994936D02*
X14140919Y-16013984D01*
X14140919Y-15890174D02*
X14150442Y-15899698D01*
X14150442Y-15899698D02*
X14140919Y-15909222D01*
X14140919Y-15909222D02*
X14131395Y-15899698D01*
X14131395Y-15899698D02*
X14140919Y-15890174D01*
X14140919Y-15890174D02*
X14140919Y-15909222D01*
D12*
X12468713Y-16322500D02*
X12508713Y-16362500D01*
X12508713Y-16322500D02*
X12468713Y-16362500D01*
D11*
X12807585Y-16233984D02*
X12826633Y-16233984D01*
X12826633Y-16233984D02*
X12845680Y-16243508D01*
X12845680Y-16243508D02*
X12855204Y-16253031D01*
X12855204Y-16253031D02*
X12864728Y-16272079D01*
X12864728Y-16272079D02*
X12874252Y-16310174D01*
X12874252Y-16310174D02*
X12874252Y-16357793D01*
X12874252Y-16357793D02*
X12864728Y-16395888D01*
X12864728Y-16395888D02*
X12855204Y-16414936D01*
X12855204Y-16414936D02*
X12845680Y-16424460D01*
X12845680Y-16424460D02*
X12826633Y-16433984D01*
X12826633Y-16433984D02*
X12807585Y-16433984D01*
X12807585Y-16433984D02*
X12788538Y-16424460D01*
X12788538Y-16424460D02*
X12779014Y-16414936D01*
X12779014Y-16414936D02*
X12769490Y-16395888D01*
X12769490Y-16395888D02*
X12759966Y-16357793D01*
X12759966Y-16357793D02*
X12759966Y-16310174D01*
X12759966Y-16310174D02*
X12769490Y-16272079D01*
X12769490Y-16272079D02*
X12779014Y-16253031D01*
X12779014Y-16253031D02*
X12788538Y-16243508D01*
X12788538Y-16243508D02*
X12807585Y-16233984D01*
X12959966Y-16414936D02*
X12969490Y-16424460D01*
X12969490Y-16424460D02*
X12959966Y-16433984D01*
X12959966Y-16433984D02*
X12950442Y-16424460D01*
X12950442Y-16424460D02*
X12959966Y-16414936D01*
X12959966Y-16414936D02*
X12959966Y-16433984D01*
X13140919Y-16300650D02*
X13140919Y-16433984D01*
X13093299Y-16224460D02*
X13045680Y-16367317D01*
X13045680Y-16367317D02*
X13169490Y-16367317D01*
X13283776Y-16233984D02*
X13302823Y-16233984D01*
X13302823Y-16233984D02*
X13321871Y-16243508D01*
X13321871Y-16243508D02*
X13331395Y-16253031D01*
X13331395Y-16253031D02*
X13340919Y-16272079D01*
X13340919Y-16272079D02*
X13350442Y-16310174D01*
X13350442Y-16310174D02*
X13350442Y-16357793D01*
X13350442Y-16357793D02*
X13340919Y-16395888D01*
X13340919Y-16395888D02*
X13331395Y-16414936D01*
X13331395Y-16414936D02*
X13321871Y-16424460D01*
X13321871Y-16424460D02*
X13302823Y-16433984D01*
X13302823Y-16433984D02*
X13283776Y-16433984D01*
X13283776Y-16433984D02*
X13264728Y-16424460D01*
X13264728Y-16424460D02*
X13255204Y-16414936D01*
X13255204Y-16414936D02*
X13245680Y-16395888D01*
X13245680Y-16395888D02*
X13236157Y-16357793D01*
X13236157Y-16357793D02*
X13236157Y-16310174D01*
X13236157Y-16310174D02*
X13245680Y-16272079D01*
X13245680Y-16272079D02*
X13255204Y-16253031D01*
X13255204Y-16253031D02*
X13264728Y-16243508D01*
X13264728Y-16243508D02*
X13283776Y-16233984D01*
X13474252Y-16233984D02*
X13493300Y-16233984D01*
X13493300Y-16233984D02*
X13512347Y-16243508D01*
X13512347Y-16243508D02*
X13521871Y-16253031D01*
X13521871Y-16253031D02*
X13531395Y-16272079D01*
X13531395Y-16272079D02*
X13540919Y-16310174D01*
X13540919Y-16310174D02*
X13540919Y-16357793D01*
X13540919Y-16357793D02*
X13531395Y-16395888D01*
X13531395Y-16395888D02*
X13521871Y-16414936D01*
X13521871Y-16414936D02*
X13512347Y-16424460D01*
X13512347Y-16424460D02*
X13493300Y-16433984D01*
X13493300Y-16433984D02*
X13474252Y-16433984D01*
X13474252Y-16433984D02*
X13455204Y-16424460D01*
X13455204Y-16424460D02*
X13445680Y-16414936D01*
X13445680Y-16414936D02*
X13436157Y-16395888D01*
X13436157Y-16395888D02*
X13426633Y-16357793D01*
X13426633Y-16357793D02*
X13426633Y-16310174D01*
X13426633Y-16310174D02*
X13436157Y-16272079D01*
X13436157Y-16272079D02*
X13445680Y-16253031D01*
X13445680Y-16253031D02*
X13455204Y-16243508D01*
X13455204Y-16243508D02*
X13474252Y-16233984D01*
X13626633Y-16433984D02*
X13626633Y-16300650D01*
X13626633Y-16319698D02*
X13636157Y-16310174D01*
X13636157Y-16310174D02*
X13655204Y-16300650D01*
X13655204Y-16300650D02*
X13683776Y-16300650D01*
X13683776Y-16300650D02*
X13702823Y-16310174D01*
X13702823Y-16310174D02*
X13712347Y-16329222D01*
X13712347Y-16329222D02*
X13712347Y-16433984D01*
X13712347Y-16329222D02*
X13721871Y-16310174D01*
X13721871Y-16310174D02*
X13740919Y-16300650D01*
X13740919Y-16300650D02*
X13769490Y-16300650D01*
X13769490Y-16300650D02*
X13788538Y-16310174D01*
X13788538Y-16310174D02*
X13798061Y-16329222D01*
X13798061Y-16329222D02*
X13798061Y-16433984D01*
X13893300Y-16433984D02*
X13893300Y-16300650D01*
X13893300Y-16319698D02*
X13902823Y-16310174D01*
X13902823Y-16310174D02*
X13921871Y-16300650D01*
X13921871Y-16300650D02*
X13950442Y-16300650D01*
X13950442Y-16300650D02*
X13969490Y-16310174D01*
X13969490Y-16310174D02*
X13979014Y-16329222D01*
X13979014Y-16329222D02*
X13979014Y-16433984D01*
X13979014Y-16329222D02*
X13988538Y-16310174D01*
X13988538Y-16310174D02*
X14007585Y-16300650D01*
X14007585Y-16300650D02*
X14036157Y-16300650D01*
X14036157Y-16300650D02*
X14055204Y-16310174D01*
X14055204Y-16310174D02*
X14064728Y-16329222D01*
X14064728Y-16329222D02*
X14064728Y-16433984D01*
X14455204Y-16224460D02*
X14283776Y-16481603D01*
X14712347Y-16233984D02*
X14731395Y-16233984D01*
X14731395Y-16233984D02*
X14750443Y-16243508D01*
X14750443Y-16243508D02*
X14759966Y-16253031D01*
X14759966Y-16253031D02*
X14769490Y-16272079D01*
X14769490Y-16272079D02*
X14779014Y-16310174D01*
X14779014Y-16310174D02*
X14779014Y-16357793D01*
X14779014Y-16357793D02*
X14769490Y-16395888D01*
X14769490Y-16395888D02*
X14759966Y-16414936D01*
X14759966Y-16414936D02*
X14750443Y-16424460D01*
X14750443Y-16424460D02*
X14731395Y-16433984D01*
X14731395Y-16433984D02*
X14712347Y-16433984D01*
X14712347Y-16433984D02*
X14693300Y-16424460D01*
X14693300Y-16424460D02*
X14683776Y-16414936D01*
X14683776Y-16414936D02*
X14674252Y-16395888D01*
X14674252Y-16395888D02*
X14664728Y-16357793D01*
X14664728Y-16357793D02*
X14664728Y-16310174D01*
X14664728Y-16310174D02*
X14674252Y-16272079D01*
X14674252Y-16272079D02*
X14683776Y-16253031D01*
X14683776Y-16253031D02*
X14693300Y-16243508D01*
X14693300Y-16243508D02*
X14712347Y-16233984D01*
X14864728Y-16414936D02*
X14874252Y-16424460D01*
X14874252Y-16424460D02*
X14864728Y-16433984D01*
X14864728Y-16433984D02*
X14855204Y-16424460D01*
X14855204Y-16424460D02*
X14864728Y-16414936D01*
X14864728Y-16414936D02*
X14864728Y-16433984D01*
X14998062Y-16233984D02*
X15017109Y-16233984D01*
X15017109Y-16233984D02*
X15036157Y-16243508D01*
X15036157Y-16243508D02*
X15045681Y-16253031D01*
X15045681Y-16253031D02*
X15055204Y-16272079D01*
X15055204Y-16272079D02*
X15064728Y-16310174D01*
X15064728Y-16310174D02*
X15064728Y-16357793D01*
X15064728Y-16357793D02*
X15055204Y-16395888D01*
X15055204Y-16395888D02*
X15045681Y-16414936D01*
X15045681Y-16414936D02*
X15036157Y-16424460D01*
X15036157Y-16424460D02*
X15017109Y-16433984D01*
X15017109Y-16433984D02*
X14998062Y-16433984D01*
X14998062Y-16433984D02*
X14979014Y-16424460D01*
X14979014Y-16424460D02*
X14969490Y-16414936D01*
X14969490Y-16414936D02*
X14959966Y-16395888D01*
X14959966Y-16395888D02*
X14950443Y-16357793D01*
X14950443Y-16357793D02*
X14950443Y-16310174D01*
X14950443Y-16310174D02*
X14959966Y-16272079D01*
X14959966Y-16272079D02*
X14969490Y-16253031D01*
X14969490Y-16253031D02*
X14979014Y-16243508D01*
X14979014Y-16243508D02*
X14998062Y-16233984D01*
X15255204Y-16433984D02*
X15140919Y-16433984D01*
X15198062Y-16433984D02*
X15198062Y-16233984D01*
X15198062Y-16233984D02*
X15179014Y-16262555D01*
X15179014Y-16262555D02*
X15159966Y-16281603D01*
X15159966Y-16281603D02*
X15140919Y-16291127D01*
X15436157Y-16233984D02*
X15340919Y-16233984D01*
X15340919Y-16233984D02*
X15331395Y-16329222D01*
X15331395Y-16329222D02*
X15340919Y-16319698D01*
X15340919Y-16319698D02*
X15359966Y-16310174D01*
X15359966Y-16310174D02*
X15407585Y-16310174D01*
X15407585Y-16310174D02*
X15426633Y-16319698D01*
X15426633Y-16319698D02*
X15436157Y-16329222D01*
X15436157Y-16329222D02*
X15445681Y-16348269D01*
X15445681Y-16348269D02*
X15445681Y-16395888D01*
X15445681Y-16395888D02*
X15436157Y-16414936D01*
X15436157Y-16414936D02*
X15426633Y-16424460D01*
X15426633Y-16424460D02*
X15407585Y-16433984D01*
X15407585Y-16433984D02*
X15359966Y-16433984D01*
X15359966Y-16433984D02*
X15340919Y-16424460D01*
X15340919Y-16424460D02*
X15331395Y-16414936D01*
X15512347Y-16233984D02*
X15645681Y-16233984D01*
X15645681Y-16233984D02*
X15559966Y-16433984D01*
X15712347Y-16233984D02*
X15712347Y-16272079D01*
X15788538Y-16233984D02*
X15788538Y-16272079D01*
X16083776Y-16510174D02*
X16074252Y-16500650D01*
X16074252Y-16500650D02*
X16055205Y-16472079D01*
X16055205Y-16472079D02*
X16045681Y-16453031D01*
X16045681Y-16453031D02*
X16036157Y-16424460D01*
X16036157Y-16424460D02*
X16026633Y-16376841D01*
X16026633Y-16376841D02*
X16026633Y-16338746D01*
X16026633Y-16338746D02*
X16036157Y-16291127D01*
X16036157Y-16291127D02*
X16045681Y-16262555D01*
X16045681Y-16262555D02*
X16055205Y-16243508D01*
X16055205Y-16243508D02*
X16074252Y-16214936D01*
X16074252Y-16214936D02*
X16083776Y-16205412D01*
X16140919Y-16233984D02*
X16264728Y-16233984D01*
X16264728Y-16233984D02*
X16198062Y-16310174D01*
X16198062Y-16310174D02*
X16226633Y-16310174D01*
X16226633Y-16310174D02*
X16245681Y-16319698D01*
X16245681Y-16319698D02*
X16255205Y-16329222D01*
X16255205Y-16329222D02*
X16264728Y-16348269D01*
X16264728Y-16348269D02*
X16264728Y-16395888D01*
X16264728Y-16395888D02*
X16255205Y-16414936D01*
X16255205Y-16414936D02*
X16245681Y-16424460D01*
X16245681Y-16424460D02*
X16226633Y-16433984D01*
X16226633Y-16433984D02*
X16169490Y-16433984D01*
X16169490Y-16433984D02*
X16150443Y-16424460D01*
X16150443Y-16424460D02*
X16140919Y-16414936D01*
X16359966Y-16433984D02*
X16398062Y-16433984D01*
X16398062Y-16433984D02*
X16417109Y-16424460D01*
X16417109Y-16424460D02*
X16426633Y-16414936D01*
X16426633Y-16414936D02*
X16445681Y-16386365D01*
X16445681Y-16386365D02*
X16455205Y-16348269D01*
X16455205Y-16348269D02*
X16455205Y-16272079D01*
X16455205Y-16272079D02*
X16445681Y-16253031D01*
X16445681Y-16253031D02*
X16436157Y-16243508D01*
X16436157Y-16243508D02*
X16417109Y-16233984D01*
X16417109Y-16233984D02*
X16379014Y-16233984D01*
X16379014Y-16233984D02*
X16359966Y-16243508D01*
X16359966Y-16243508D02*
X16350443Y-16253031D01*
X16350443Y-16253031D02*
X16340919Y-16272079D01*
X16340919Y-16272079D02*
X16340919Y-16319698D01*
X16340919Y-16319698D02*
X16350443Y-16338746D01*
X16350443Y-16338746D02*
X16359966Y-16348269D01*
X16359966Y-16348269D02*
X16379014Y-16357793D01*
X16379014Y-16357793D02*
X16417109Y-16357793D01*
X16417109Y-16357793D02*
X16436157Y-16348269D01*
X16436157Y-16348269D02*
X16445681Y-16338746D01*
X16445681Y-16338746D02*
X16455205Y-16319698D01*
X16693300Y-16433984D02*
X16693300Y-16233984D01*
X16779014Y-16433984D02*
X16779014Y-16329222D01*
X16779014Y-16329222D02*
X16769490Y-16310174D01*
X16769490Y-16310174D02*
X16750443Y-16300650D01*
X16750443Y-16300650D02*
X16721871Y-16300650D01*
X16721871Y-16300650D02*
X16702824Y-16310174D01*
X16702824Y-16310174D02*
X16693300Y-16319698D01*
X16902824Y-16433984D02*
X16883776Y-16424460D01*
X16883776Y-16424460D02*
X16874252Y-16414936D01*
X16874252Y-16414936D02*
X16864729Y-16395888D01*
X16864729Y-16395888D02*
X16864729Y-16338746D01*
X16864729Y-16338746D02*
X16874252Y-16319698D01*
X16874252Y-16319698D02*
X16883776Y-16310174D01*
X16883776Y-16310174D02*
X16902824Y-16300650D01*
X16902824Y-16300650D02*
X16931395Y-16300650D01*
X16931395Y-16300650D02*
X16950443Y-16310174D01*
X16950443Y-16310174D02*
X16959967Y-16319698D01*
X16959967Y-16319698D02*
X16969490Y-16338746D01*
X16969490Y-16338746D02*
X16969490Y-16395888D01*
X16969490Y-16395888D02*
X16959967Y-16414936D01*
X16959967Y-16414936D02*
X16950443Y-16424460D01*
X16950443Y-16424460D02*
X16931395Y-16433984D01*
X16931395Y-16433984D02*
X16902824Y-16433984D01*
X17083776Y-16433984D02*
X17064729Y-16424460D01*
X17064729Y-16424460D02*
X17055205Y-16405412D01*
X17055205Y-16405412D02*
X17055205Y-16233984D01*
X17236157Y-16424460D02*
X17217110Y-16433984D01*
X17217110Y-16433984D02*
X17179014Y-16433984D01*
X17179014Y-16433984D02*
X17159967Y-16424460D01*
X17159967Y-16424460D02*
X17150443Y-16405412D01*
X17150443Y-16405412D02*
X17150443Y-16329222D01*
X17150443Y-16329222D02*
X17159967Y-16310174D01*
X17159967Y-16310174D02*
X17179014Y-16300650D01*
X17179014Y-16300650D02*
X17217110Y-16300650D01*
X17217110Y-16300650D02*
X17236157Y-16310174D01*
X17236157Y-16310174D02*
X17245681Y-16329222D01*
X17245681Y-16329222D02*
X17245681Y-16348269D01*
X17245681Y-16348269D02*
X17150443Y-16367317D01*
X17321871Y-16424460D02*
X17340919Y-16433984D01*
X17340919Y-16433984D02*
X17379014Y-16433984D01*
X17379014Y-16433984D02*
X17398062Y-16424460D01*
X17398062Y-16424460D02*
X17407586Y-16405412D01*
X17407586Y-16405412D02*
X17407586Y-16395888D01*
X17407586Y-16395888D02*
X17398062Y-16376841D01*
X17398062Y-16376841D02*
X17379014Y-16367317D01*
X17379014Y-16367317D02*
X17350443Y-16367317D01*
X17350443Y-16367317D02*
X17331395Y-16357793D01*
X17331395Y-16357793D02*
X17321871Y-16338746D01*
X17321871Y-16338746D02*
X17321871Y-16329222D01*
X17321871Y-16329222D02*
X17331395Y-16310174D01*
X17331395Y-16310174D02*
X17350443Y-16300650D01*
X17350443Y-16300650D02*
X17379014Y-16300650D01*
X17379014Y-16300650D02*
X17398062Y-16310174D01*
X17474252Y-16510174D02*
X17483776Y-16500650D01*
X17483776Y-16500650D02*
X17502824Y-16472079D01*
X17502824Y-16472079D02*
X17512348Y-16453031D01*
X17512348Y-16453031D02*
X17521871Y-16424460D01*
X17521871Y-16424460D02*
X17531395Y-16376841D01*
X17531395Y-16376841D02*
X17531395Y-16338746D01*
X17531395Y-16338746D02*
X17521871Y-16291127D01*
X17521871Y-16291127D02*
X17512348Y-16262555D01*
X17512348Y-16262555D02*
X17502824Y-16243508D01*
X17502824Y-16243508D02*
X17483776Y-16214936D01*
X17483776Y-16214936D02*
X17474252Y-16205412D01*
M02*
