%TF.GenerationSoftware,KiCad,Pcbnew,8.0.7-1.fc41*%
%TF.CreationDate,2025-01-19T14:44:00-06:00*%
%TF.ProjectId,Expansion_Card,45787061-6e73-4696-9f6e-5f436172642e,X1*%
%TF.SameCoordinates,Original*%
%TF.FileFunction,AssemblyDrawing,Bot*%
%FSLAX46Y46*%
G04 Gerber Fmt 4.6, Leading zero omitted, Abs format (unit mm)*
G04 Created by KiCad (PCBNEW 8.0.7-1.fc41) date 2025-01-19 14:44:00*
%MOMM*%
%LPD*%
G01*
G04 APERTURE LIST*
%ADD10C,0.150000*%
%ADD11C,0.127000*%
%ADD12C,0.200000*%
G04 APERTURE END LIST*
D10*
X137633333Y-125704819D02*
X137061905Y-125704819D01*
X137347619Y-126704819D02*
X137347619Y-125704819D01*
X136347619Y-126657200D02*
X136442857Y-126704819D01*
X136442857Y-126704819D02*
X136633333Y-126704819D01*
X136633333Y-126704819D02*
X136728571Y-126657200D01*
X136728571Y-126657200D02*
X136776190Y-126561961D01*
X136776190Y-126561961D02*
X136776190Y-126181009D01*
X136776190Y-126181009D02*
X136728571Y-126085771D01*
X136728571Y-126085771D02*
X136633333Y-126038152D01*
X136633333Y-126038152D02*
X136442857Y-126038152D01*
X136442857Y-126038152D02*
X136347619Y-126085771D01*
X136347619Y-126085771D02*
X136300000Y-126181009D01*
X136300000Y-126181009D02*
X136300000Y-126276247D01*
X136300000Y-126276247D02*
X136776190Y-126371485D01*
X135919047Y-126657200D02*
X135823809Y-126704819D01*
X135823809Y-126704819D02*
X135633333Y-126704819D01*
X135633333Y-126704819D02*
X135538095Y-126657200D01*
X135538095Y-126657200D02*
X135490476Y-126561961D01*
X135490476Y-126561961D02*
X135490476Y-126514342D01*
X135490476Y-126514342D02*
X135538095Y-126419104D01*
X135538095Y-126419104D02*
X135633333Y-126371485D01*
X135633333Y-126371485D02*
X135776190Y-126371485D01*
X135776190Y-126371485D02*
X135871428Y-126323866D01*
X135871428Y-126323866D02*
X135919047Y-126228628D01*
X135919047Y-126228628D02*
X135919047Y-126181009D01*
X135919047Y-126181009D02*
X135871428Y-126085771D01*
X135871428Y-126085771D02*
X135776190Y-126038152D01*
X135776190Y-126038152D02*
X135633333Y-126038152D01*
X135633333Y-126038152D02*
X135538095Y-126085771D01*
X135204761Y-126038152D02*
X134823809Y-126038152D01*
X135061904Y-125704819D02*
X135061904Y-126561961D01*
X135061904Y-126561961D02*
X135014285Y-126657200D01*
X135014285Y-126657200D02*
X134919047Y-126704819D01*
X134919047Y-126704819D02*
X134823809Y-126704819D01*
X134490475Y-126704819D02*
X134490475Y-125704819D01*
X134490475Y-125704819D02*
X134109523Y-125704819D01*
X134109523Y-125704819D02*
X134014285Y-125752438D01*
X134014285Y-125752438D02*
X133966666Y-125800057D01*
X133966666Y-125800057D02*
X133919047Y-125895295D01*
X133919047Y-125895295D02*
X133919047Y-126038152D01*
X133919047Y-126038152D02*
X133966666Y-126133390D01*
X133966666Y-126133390D02*
X134014285Y-126181009D01*
X134014285Y-126181009D02*
X134109523Y-126228628D01*
X134109523Y-126228628D02*
X134490475Y-126228628D01*
X133347618Y-126704819D02*
X133442856Y-126657200D01*
X133442856Y-126657200D02*
X133490475Y-126609580D01*
X133490475Y-126609580D02*
X133538094Y-126514342D01*
X133538094Y-126514342D02*
X133538094Y-126228628D01*
X133538094Y-126228628D02*
X133490475Y-126133390D01*
X133490475Y-126133390D02*
X133442856Y-126085771D01*
X133442856Y-126085771D02*
X133347618Y-126038152D01*
X133347618Y-126038152D02*
X133204761Y-126038152D01*
X133204761Y-126038152D02*
X133109523Y-126085771D01*
X133109523Y-126085771D02*
X133061904Y-126133390D01*
X133061904Y-126133390D02*
X133014285Y-126228628D01*
X133014285Y-126228628D02*
X133014285Y-126514342D01*
X133014285Y-126514342D02*
X133061904Y-126609580D01*
X133061904Y-126609580D02*
X133109523Y-126657200D01*
X133109523Y-126657200D02*
X133204761Y-126704819D01*
X133204761Y-126704819D02*
X133347618Y-126704819D01*
X132585713Y-126704819D02*
X132585713Y-126038152D01*
X132585713Y-125704819D02*
X132633332Y-125752438D01*
X132633332Y-125752438D02*
X132585713Y-125800057D01*
X132585713Y-125800057D02*
X132538094Y-125752438D01*
X132538094Y-125752438D02*
X132585713Y-125704819D01*
X132585713Y-125704819D02*
X132585713Y-125800057D01*
X132109523Y-126038152D02*
X132109523Y-126704819D01*
X132109523Y-126133390D02*
X132061904Y-126085771D01*
X132061904Y-126085771D02*
X131966666Y-126038152D01*
X131966666Y-126038152D02*
X131823809Y-126038152D01*
X131823809Y-126038152D02*
X131728571Y-126085771D01*
X131728571Y-126085771D02*
X131680952Y-126181009D01*
X131680952Y-126181009D02*
X131680952Y-126704819D01*
X131347618Y-126038152D02*
X130966666Y-126038152D01*
X131204761Y-125704819D02*
X131204761Y-126561961D01*
X131204761Y-126561961D02*
X131157142Y-126657200D01*
X131157142Y-126657200D02*
X131061904Y-126704819D01*
X131061904Y-126704819D02*
X130966666Y-126704819D01*
X135561904Y-129104819D02*
X134990476Y-129104819D01*
X135276190Y-130104819D02*
X135276190Y-129104819D01*
X134657142Y-130104819D02*
X134657142Y-129104819D01*
X134657142Y-129104819D02*
X134276190Y-129104819D01*
X134276190Y-129104819D02*
X134180952Y-129152438D01*
X134180952Y-129152438D02*
X134133333Y-129200057D01*
X134133333Y-129200057D02*
X134085714Y-129295295D01*
X134085714Y-129295295D02*
X134085714Y-129438152D01*
X134085714Y-129438152D02*
X134133333Y-129533390D01*
X134133333Y-129533390D02*
X134180952Y-129581009D01*
X134180952Y-129581009D02*
X134276190Y-129628628D01*
X134276190Y-129628628D02*
X134657142Y-129628628D01*
X133704761Y-129200057D02*
X133657142Y-129152438D01*
X133657142Y-129152438D02*
X133561904Y-129104819D01*
X133561904Y-129104819D02*
X133323809Y-129104819D01*
X133323809Y-129104819D02*
X133228571Y-129152438D01*
X133228571Y-129152438D02*
X133180952Y-129200057D01*
X133180952Y-129200057D02*
X133133333Y-129295295D01*
X133133333Y-129295295D02*
X133133333Y-129390533D01*
X133133333Y-129390533D02*
X133180952Y-129533390D01*
X133180952Y-129533390D02*
X133752380Y-130104819D01*
X133752380Y-130104819D02*
X133133333Y-130104819D01*
X149033333Y-125704819D02*
X148461905Y-125704819D01*
X148747619Y-126704819D02*
X148747619Y-125704819D01*
X147747619Y-126657200D02*
X147842857Y-126704819D01*
X147842857Y-126704819D02*
X148033333Y-126704819D01*
X148033333Y-126704819D02*
X148128571Y-126657200D01*
X148128571Y-126657200D02*
X148176190Y-126561961D01*
X148176190Y-126561961D02*
X148176190Y-126181009D01*
X148176190Y-126181009D02*
X148128571Y-126085771D01*
X148128571Y-126085771D02*
X148033333Y-126038152D01*
X148033333Y-126038152D02*
X147842857Y-126038152D01*
X147842857Y-126038152D02*
X147747619Y-126085771D01*
X147747619Y-126085771D02*
X147700000Y-126181009D01*
X147700000Y-126181009D02*
X147700000Y-126276247D01*
X147700000Y-126276247D02*
X148176190Y-126371485D01*
X147319047Y-126657200D02*
X147223809Y-126704819D01*
X147223809Y-126704819D02*
X147033333Y-126704819D01*
X147033333Y-126704819D02*
X146938095Y-126657200D01*
X146938095Y-126657200D02*
X146890476Y-126561961D01*
X146890476Y-126561961D02*
X146890476Y-126514342D01*
X146890476Y-126514342D02*
X146938095Y-126419104D01*
X146938095Y-126419104D02*
X147033333Y-126371485D01*
X147033333Y-126371485D02*
X147176190Y-126371485D01*
X147176190Y-126371485D02*
X147271428Y-126323866D01*
X147271428Y-126323866D02*
X147319047Y-126228628D01*
X147319047Y-126228628D02*
X147319047Y-126181009D01*
X147319047Y-126181009D02*
X147271428Y-126085771D01*
X147271428Y-126085771D02*
X147176190Y-126038152D01*
X147176190Y-126038152D02*
X147033333Y-126038152D01*
X147033333Y-126038152D02*
X146938095Y-126085771D01*
X146604761Y-126038152D02*
X146223809Y-126038152D01*
X146461904Y-125704819D02*
X146461904Y-126561961D01*
X146461904Y-126561961D02*
X146414285Y-126657200D01*
X146414285Y-126657200D02*
X146319047Y-126704819D01*
X146319047Y-126704819D02*
X146223809Y-126704819D01*
X145890475Y-126704819D02*
X145890475Y-125704819D01*
X145890475Y-125704819D02*
X145509523Y-125704819D01*
X145509523Y-125704819D02*
X145414285Y-125752438D01*
X145414285Y-125752438D02*
X145366666Y-125800057D01*
X145366666Y-125800057D02*
X145319047Y-125895295D01*
X145319047Y-125895295D02*
X145319047Y-126038152D01*
X145319047Y-126038152D02*
X145366666Y-126133390D01*
X145366666Y-126133390D02*
X145414285Y-126181009D01*
X145414285Y-126181009D02*
X145509523Y-126228628D01*
X145509523Y-126228628D02*
X145890475Y-126228628D01*
X144747618Y-126704819D02*
X144842856Y-126657200D01*
X144842856Y-126657200D02*
X144890475Y-126609580D01*
X144890475Y-126609580D02*
X144938094Y-126514342D01*
X144938094Y-126514342D02*
X144938094Y-126228628D01*
X144938094Y-126228628D02*
X144890475Y-126133390D01*
X144890475Y-126133390D02*
X144842856Y-126085771D01*
X144842856Y-126085771D02*
X144747618Y-126038152D01*
X144747618Y-126038152D02*
X144604761Y-126038152D01*
X144604761Y-126038152D02*
X144509523Y-126085771D01*
X144509523Y-126085771D02*
X144461904Y-126133390D01*
X144461904Y-126133390D02*
X144414285Y-126228628D01*
X144414285Y-126228628D02*
X144414285Y-126514342D01*
X144414285Y-126514342D02*
X144461904Y-126609580D01*
X144461904Y-126609580D02*
X144509523Y-126657200D01*
X144509523Y-126657200D02*
X144604761Y-126704819D01*
X144604761Y-126704819D02*
X144747618Y-126704819D01*
X143985713Y-126704819D02*
X143985713Y-126038152D01*
X143985713Y-125704819D02*
X144033332Y-125752438D01*
X144033332Y-125752438D02*
X143985713Y-125800057D01*
X143985713Y-125800057D02*
X143938094Y-125752438D01*
X143938094Y-125752438D02*
X143985713Y-125704819D01*
X143985713Y-125704819D02*
X143985713Y-125800057D01*
X143509523Y-126038152D02*
X143509523Y-126704819D01*
X143509523Y-126133390D02*
X143461904Y-126085771D01*
X143461904Y-126085771D02*
X143366666Y-126038152D01*
X143366666Y-126038152D02*
X143223809Y-126038152D01*
X143223809Y-126038152D02*
X143128571Y-126085771D01*
X143128571Y-126085771D02*
X143080952Y-126181009D01*
X143080952Y-126181009D02*
X143080952Y-126704819D01*
X142747618Y-126038152D02*
X142366666Y-126038152D01*
X142604761Y-125704819D02*
X142604761Y-126561961D01*
X142604761Y-126561961D02*
X142557142Y-126657200D01*
X142557142Y-126657200D02*
X142461904Y-126704819D01*
X142461904Y-126704819D02*
X142366666Y-126704819D01*
X146961904Y-129104819D02*
X146390476Y-129104819D01*
X146676190Y-130104819D02*
X146676190Y-129104819D01*
X146057142Y-130104819D02*
X146057142Y-129104819D01*
X146057142Y-129104819D02*
X145676190Y-129104819D01*
X145676190Y-129104819D02*
X145580952Y-129152438D01*
X145580952Y-129152438D02*
X145533333Y-129200057D01*
X145533333Y-129200057D02*
X145485714Y-129295295D01*
X145485714Y-129295295D02*
X145485714Y-129438152D01*
X145485714Y-129438152D02*
X145533333Y-129533390D01*
X145533333Y-129533390D02*
X145580952Y-129581009D01*
X145580952Y-129581009D02*
X145676190Y-129628628D01*
X145676190Y-129628628D02*
X146057142Y-129628628D01*
X144628571Y-129438152D02*
X144628571Y-130104819D01*
X144866666Y-129057200D02*
X145104761Y-129771485D01*
X145104761Y-129771485D02*
X144485714Y-129771485D01*
X153782143Y-137222200D02*
X153639286Y-137269819D01*
X153639286Y-137269819D02*
X153401191Y-137269819D01*
X153401191Y-137269819D02*
X153305953Y-137222200D01*
X153305953Y-137222200D02*
X153258334Y-137174580D01*
X153258334Y-137174580D02*
X153210715Y-137079342D01*
X153210715Y-137079342D02*
X153210715Y-136984104D01*
X153210715Y-136984104D02*
X153258334Y-136888866D01*
X153258334Y-136888866D02*
X153305953Y-136841247D01*
X153305953Y-136841247D02*
X153401191Y-136793628D01*
X153401191Y-136793628D02*
X153591667Y-136746009D01*
X153591667Y-136746009D02*
X153686905Y-136698390D01*
X153686905Y-136698390D02*
X153734524Y-136650771D01*
X153734524Y-136650771D02*
X153782143Y-136555533D01*
X153782143Y-136555533D02*
X153782143Y-136460295D01*
X153782143Y-136460295D02*
X153734524Y-136365057D01*
X153734524Y-136365057D02*
X153686905Y-136317438D01*
X153686905Y-136317438D02*
X153591667Y-136269819D01*
X153591667Y-136269819D02*
X153353572Y-136269819D01*
X153353572Y-136269819D02*
X153210715Y-136317438D01*
X152782143Y-137269819D02*
X152782143Y-136269819D01*
X152782143Y-136269819D02*
X152544048Y-136269819D01*
X152544048Y-136269819D02*
X152401191Y-136317438D01*
X152401191Y-136317438D02*
X152305953Y-136412676D01*
X152305953Y-136412676D02*
X152258334Y-136507914D01*
X152258334Y-136507914D02*
X152210715Y-136698390D01*
X152210715Y-136698390D02*
X152210715Y-136841247D01*
X152210715Y-136841247D02*
X152258334Y-137031723D01*
X152258334Y-137031723D02*
X152305953Y-137126961D01*
X152305953Y-137126961D02*
X152401191Y-137222200D01*
X152401191Y-137222200D02*
X152544048Y-137269819D01*
X152544048Y-137269819D02*
X152782143Y-137269819D01*
X152020239Y-137365057D02*
X151258334Y-137365057D01*
X150448810Y-137174580D02*
X150496429Y-137222200D01*
X150496429Y-137222200D02*
X150639286Y-137269819D01*
X150639286Y-137269819D02*
X150734524Y-137269819D01*
X150734524Y-137269819D02*
X150877381Y-137222200D01*
X150877381Y-137222200D02*
X150972619Y-137126961D01*
X150972619Y-137126961D02*
X151020238Y-137031723D01*
X151020238Y-137031723D02*
X151067857Y-136841247D01*
X151067857Y-136841247D02*
X151067857Y-136698390D01*
X151067857Y-136698390D02*
X151020238Y-136507914D01*
X151020238Y-136507914D02*
X150972619Y-136412676D01*
X150972619Y-136412676D02*
X150877381Y-136317438D01*
X150877381Y-136317438D02*
X150734524Y-136269819D01*
X150734524Y-136269819D02*
X150639286Y-136269819D01*
X150639286Y-136269819D02*
X150496429Y-136317438D01*
X150496429Y-136317438D02*
X150448810Y-136365057D01*
X149591667Y-137269819D02*
X149591667Y-136746009D01*
X149591667Y-136746009D02*
X149639286Y-136650771D01*
X149639286Y-136650771D02*
X149734524Y-136603152D01*
X149734524Y-136603152D02*
X149925000Y-136603152D01*
X149925000Y-136603152D02*
X150020238Y-136650771D01*
X149591667Y-137222200D02*
X149686905Y-137269819D01*
X149686905Y-137269819D02*
X149925000Y-137269819D01*
X149925000Y-137269819D02*
X150020238Y-137222200D01*
X150020238Y-137222200D02*
X150067857Y-137126961D01*
X150067857Y-137126961D02*
X150067857Y-137031723D01*
X150067857Y-137031723D02*
X150020238Y-136936485D01*
X150020238Y-136936485D02*
X149925000Y-136888866D01*
X149925000Y-136888866D02*
X149686905Y-136888866D01*
X149686905Y-136888866D02*
X149591667Y-136841247D01*
X149115476Y-137269819D02*
X149115476Y-136603152D01*
X149115476Y-136793628D02*
X149067857Y-136698390D01*
X149067857Y-136698390D02*
X149020238Y-136650771D01*
X149020238Y-136650771D02*
X148925000Y-136603152D01*
X148925000Y-136603152D02*
X148829762Y-136603152D01*
X148067857Y-137269819D02*
X148067857Y-136269819D01*
X148067857Y-137222200D02*
X148163095Y-137269819D01*
X148163095Y-137269819D02*
X148353571Y-137269819D01*
X148353571Y-137269819D02*
X148448809Y-137222200D01*
X148448809Y-137222200D02*
X148496428Y-137174580D01*
X148496428Y-137174580D02*
X148544047Y-137079342D01*
X148544047Y-137079342D02*
X148544047Y-136793628D01*
X148544047Y-136793628D02*
X148496428Y-136698390D01*
X148496428Y-136698390D02*
X148448809Y-136650771D01*
X148448809Y-136650771D02*
X148353571Y-136603152D01*
X148353571Y-136603152D02*
X148163095Y-136603152D01*
X148163095Y-136603152D02*
X148067857Y-136650771D01*
X147829762Y-137365057D02*
X147067857Y-137365057D01*
X146258333Y-137269819D02*
X146591666Y-136793628D01*
X146829761Y-137269819D02*
X146829761Y-136269819D01*
X146829761Y-136269819D02*
X146448809Y-136269819D01*
X146448809Y-136269819D02*
X146353571Y-136317438D01*
X146353571Y-136317438D02*
X146305952Y-136365057D01*
X146305952Y-136365057D02*
X146258333Y-136460295D01*
X146258333Y-136460295D02*
X146258333Y-136603152D01*
X146258333Y-136603152D02*
X146305952Y-136698390D01*
X146305952Y-136698390D02*
X146353571Y-136746009D01*
X146353571Y-136746009D02*
X146448809Y-136793628D01*
X146448809Y-136793628D02*
X146829761Y-136793628D01*
X145448809Y-137222200D02*
X145544047Y-137269819D01*
X145544047Y-137269819D02*
X145734523Y-137269819D01*
X145734523Y-137269819D02*
X145829761Y-137222200D01*
X145829761Y-137222200D02*
X145877380Y-137126961D01*
X145877380Y-137126961D02*
X145877380Y-136746009D01*
X145877380Y-136746009D02*
X145829761Y-136650771D01*
X145829761Y-136650771D02*
X145734523Y-136603152D01*
X145734523Y-136603152D02*
X145544047Y-136603152D01*
X145544047Y-136603152D02*
X145448809Y-136650771D01*
X145448809Y-136650771D02*
X145401190Y-136746009D01*
X145401190Y-136746009D02*
X145401190Y-136841247D01*
X145401190Y-136841247D02*
X145877380Y-136936485D01*
X144544047Y-137222200D02*
X144639285Y-137269819D01*
X144639285Y-137269819D02*
X144829761Y-137269819D01*
X144829761Y-137269819D02*
X144924999Y-137222200D01*
X144924999Y-137222200D02*
X144972618Y-137174580D01*
X144972618Y-137174580D02*
X145020237Y-137079342D01*
X145020237Y-137079342D02*
X145020237Y-136793628D01*
X145020237Y-136793628D02*
X144972618Y-136698390D01*
X144972618Y-136698390D02*
X144924999Y-136650771D01*
X144924999Y-136650771D02*
X144829761Y-136603152D01*
X144829761Y-136603152D02*
X144639285Y-136603152D01*
X144639285Y-136603152D02*
X144544047Y-136650771D01*
X143734523Y-137222200D02*
X143829761Y-137269819D01*
X143829761Y-137269819D02*
X144020237Y-137269819D01*
X144020237Y-137269819D02*
X144115475Y-137222200D01*
X144115475Y-137222200D02*
X144163094Y-137126961D01*
X144163094Y-137126961D02*
X144163094Y-136746009D01*
X144163094Y-136746009D02*
X144115475Y-136650771D01*
X144115475Y-136650771D02*
X144020237Y-136603152D01*
X144020237Y-136603152D02*
X143829761Y-136603152D01*
X143829761Y-136603152D02*
X143734523Y-136650771D01*
X143734523Y-136650771D02*
X143686904Y-136746009D01*
X143686904Y-136746009D02*
X143686904Y-136841247D01*
X143686904Y-136841247D02*
X144163094Y-136936485D01*
X143258332Y-136603152D02*
X143258332Y-137603152D01*
X143258332Y-136650771D02*
X143163094Y-136603152D01*
X143163094Y-136603152D02*
X142972618Y-136603152D01*
X142972618Y-136603152D02*
X142877380Y-136650771D01*
X142877380Y-136650771D02*
X142829761Y-136698390D01*
X142829761Y-136698390D02*
X142782142Y-136793628D01*
X142782142Y-136793628D02*
X142782142Y-137079342D01*
X142782142Y-137079342D02*
X142829761Y-137174580D01*
X142829761Y-137174580D02*
X142877380Y-137222200D01*
X142877380Y-137222200D02*
X142972618Y-137269819D01*
X142972618Y-137269819D02*
X143163094Y-137269819D01*
X143163094Y-137269819D02*
X143258332Y-137222200D01*
X142496427Y-136603152D02*
X142115475Y-136603152D01*
X142353570Y-136269819D02*
X142353570Y-137126961D01*
X142353570Y-137126961D02*
X142305951Y-137222200D01*
X142305951Y-137222200D02*
X142210713Y-137269819D01*
X142210713Y-137269819D02*
X142115475Y-137269819D01*
X141353570Y-137269819D02*
X141353570Y-136746009D01*
X141353570Y-136746009D02*
X141401189Y-136650771D01*
X141401189Y-136650771D02*
X141496427Y-136603152D01*
X141496427Y-136603152D02*
X141686903Y-136603152D01*
X141686903Y-136603152D02*
X141782141Y-136650771D01*
X141353570Y-137222200D02*
X141448808Y-137269819D01*
X141448808Y-137269819D02*
X141686903Y-137269819D01*
X141686903Y-137269819D02*
X141782141Y-137222200D01*
X141782141Y-137222200D02*
X141829760Y-137126961D01*
X141829760Y-137126961D02*
X141829760Y-137031723D01*
X141829760Y-137031723D02*
X141782141Y-136936485D01*
X141782141Y-136936485D02*
X141686903Y-136888866D01*
X141686903Y-136888866D02*
X141448808Y-136888866D01*
X141448808Y-136888866D02*
X141353570Y-136841247D01*
X140448808Y-137222200D02*
X140544046Y-137269819D01*
X140544046Y-137269819D02*
X140734522Y-137269819D01*
X140734522Y-137269819D02*
X140829760Y-137222200D01*
X140829760Y-137222200D02*
X140877379Y-137174580D01*
X140877379Y-137174580D02*
X140924998Y-137079342D01*
X140924998Y-137079342D02*
X140924998Y-136793628D01*
X140924998Y-136793628D02*
X140877379Y-136698390D01*
X140877379Y-136698390D02*
X140829760Y-136650771D01*
X140829760Y-136650771D02*
X140734522Y-136603152D01*
X140734522Y-136603152D02*
X140544046Y-136603152D01*
X140544046Y-136603152D02*
X140448808Y-136650771D01*
X139877379Y-137269819D02*
X139972617Y-137222200D01*
X139972617Y-137222200D02*
X140020236Y-137126961D01*
X140020236Y-137126961D02*
X140020236Y-136269819D01*
X139115474Y-137222200D02*
X139210712Y-137269819D01*
X139210712Y-137269819D02*
X139401188Y-137269819D01*
X139401188Y-137269819D02*
X139496426Y-137222200D01*
X139496426Y-137222200D02*
X139544045Y-137126961D01*
X139544045Y-137126961D02*
X139544045Y-136746009D01*
X139544045Y-136746009D02*
X139496426Y-136650771D01*
X139496426Y-136650771D02*
X139401188Y-136603152D01*
X139401188Y-136603152D02*
X139210712Y-136603152D01*
X139210712Y-136603152D02*
X139115474Y-136650771D01*
X139115474Y-136650771D02*
X139067855Y-136746009D01*
X139067855Y-136746009D02*
X139067855Y-136841247D01*
X139067855Y-136841247D02*
X139544045Y-136936485D01*
D11*
%TO.C,J2*%
X126625000Y-139700000D02*
X126625000Y-156200000D01*
X126625000Y-156200000D02*
X127775000Y-156200000D01*
X127775000Y-156200000D02*
X127775000Y-175500000D01*
X127775000Y-156200000D02*
X151775000Y-156200000D01*
X128275000Y-176000000D02*
X151275000Y-176000000D01*
X151775000Y-156200000D02*
X152925000Y-156200000D01*
X151775000Y-175500000D02*
X151775000Y-156200000D01*
X152925000Y-139700000D02*
X126625000Y-139700000D01*
X152925000Y-156200000D02*
X152925000Y-139700000D01*
X128275000Y-176000000D02*
G75*
G02*
X127775000Y-175500000I0J500000D01*
G01*
X151775000Y-175500000D02*
G75*
G02*
X151275000Y-176000000I-500001J1D01*
G01*
D12*
X133000000Y-137200000D02*
G75*
G02*
X132800000Y-137200000I-100000J0D01*
G01*
X132800000Y-137200000D02*
G75*
G02*
X133000000Y-137200000I100000J0D01*
G01*
%TD*%
M02*
