%TF.GenerationSoftware,KiCad,Pcbnew,8.0.7-1.fc41*%
%TF.CreationDate,2025-01-19T14:43:59-06:00*%
%TF.ProjectId,Expansion_Card,45787061-6e73-4696-9f6e-5f436172642e,X1*%
%TF.SameCoordinates,Original*%
%TF.FileFunction,Copper,L2,Inr*%
%TF.FilePolarity,Positive*%
%FSLAX46Y46*%
G04 Gerber Fmt 4.6, Leading zero omitted, Abs format (unit mm)*
G04 Created by KiCad (PCBNEW 8.0.7-1.fc41) date 2025-01-19 14:43:59*
%MOMM*%
%LPD*%
G01*
G04 APERTURE LIST*
%TA.AperFunction,ViaPad*%
%ADD10C,0.800000*%
%TD*%
G04 APERTURE END LIST*
D10*
%TO.N,GND*%
X148437471Y-136668200D03*
X147400000Y-128000000D03*
X145200000Y-138300000D03*
X148673340Y-129949207D03*
X133300000Y-131600000D03*
X134300000Y-130000000D03*
X142200000Y-130576200D03*
X131000000Y-147000000D03*
X132000000Y-154400000D03*
X151400000Y-133300000D03*
X138472492Y-132016200D03*
X137200000Y-134900000D03*
X140300000Y-154000000D03*
X137400000Y-140800000D03*
X149300000Y-147300000D03*
X143088090Y-136668200D03*
X141900000Y-146000000D03*
%TO.N,+3V3*%
X140718540Y-134047144D03*
X139000002Y-139500000D03*
X151040960Y-132194280D03*
X134700000Y-132800000D03*
X141900000Y-144500000D03*
X149309999Y-146007142D03*
X146000000Y-130800000D03*
%TO.N,VBUS*%
X133518749Y-130624216D03*
X139600000Y-131000000D03*
%TO.N,Net-(J2-VDD)*%
X148100000Y-131700000D03*
%TO.N,/SD1_WP*%
X146973278Y-146573278D03*
%TO.N,Net-(J2-CMD)*%
X152300000Y-136300000D03*
%TO.N,Net-(J2-DAT0)*%
X150300000Y-140700000D03*
%TO.N,Net-(J2-CLK)*%
X151248685Y-140383772D03*
%TO.N,/SD1_D2*%
X150500000Y-134000000D03*
%TO.N,/SD1_CD*%
X147510610Y-147416652D03*
%TO.N,/SD1_D3*%
X150500000Y-135000000D03*
%TO.N,Net-(J2-DAT1)*%
X149578146Y-141421854D03*
%TO.N,/USB_DN*%
X140457761Y-130485947D03*
X137532509Y-132988800D03*
%TO.N,Net-(J1-DET_B)*%
X139998630Y-142198631D03*
X140871854Y-149571854D03*
%TD*%
%TA.AperFunction,Conductor*%
%TO.N,+3V3*%
G36*
X135009640Y-127027027D02*
G01*
X135037135Y-127031381D01*
X135065425Y-127035862D01*
X135102320Y-127047849D01*
X135143850Y-127069010D01*
X135175235Y-127091813D01*
X135208186Y-127124764D01*
X135230990Y-127156150D01*
X135252149Y-127197677D01*
X135264137Y-127234573D01*
X135272973Y-127290357D01*
X135274500Y-127309756D01*
X135274500Y-128751555D01*
X135285310Y-128784825D01*
X135306363Y-128849616D01*
X135366968Y-128933032D01*
X135450384Y-128993637D01*
X135548446Y-129025500D01*
X135548447Y-129025500D01*
X136701553Y-129025500D01*
X136701554Y-129025500D01*
X136799616Y-128993637D01*
X136883032Y-128933032D01*
X136943637Y-128849616D01*
X136975500Y-128751554D01*
X136975500Y-128700000D01*
X136975500Y-128691715D01*
X136975500Y-128349756D01*
X136977027Y-128330359D01*
X136985862Y-128274575D01*
X136997848Y-128237680D01*
X137019011Y-128196146D01*
X137041810Y-128164767D01*
X137074767Y-128131810D01*
X137106146Y-128109011D01*
X137147680Y-128087848D01*
X137184566Y-128075863D01*
X137240370Y-128067025D01*
X137259757Y-128065500D01*
X142740243Y-128065500D01*
X142759640Y-128067027D01*
X142787135Y-128071381D01*
X142815425Y-128075862D01*
X142852320Y-128087849D01*
X142893850Y-128109010D01*
X142925235Y-128131813D01*
X142958186Y-128164764D01*
X142980990Y-128196150D01*
X143002149Y-128237677D01*
X143014137Y-128274573D01*
X143022973Y-128330357D01*
X143024500Y-128349756D01*
X143024500Y-128751555D01*
X143035310Y-128784825D01*
X143056363Y-128849616D01*
X143116968Y-128933032D01*
X143200384Y-128993637D01*
X143298446Y-129025500D01*
X143298447Y-129025500D01*
X144451553Y-129025500D01*
X144451554Y-129025500D01*
X144549616Y-128993637D01*
X144633032Y-128933032D01*
X144693637Y-128849616D01*
X144725500Y-128751554D01*
X144725500Y-128700000D01*
X144725500Y-128691715D01*
X144725500Y-127999998D01*
X146794318Y-127999998D01*
X146794318Y-128000001D01*
X146814955Y-128156760D01*
X146814956Y-128156762D01*
X146875464Y-128302841D01*
X146971718Y-128428282D01*
X147097159Y-128524536D01*
X147243238Y-128585044D01*
X147321619Y-128595363D01*
X147399999Y-128605682D01*
X147400000Y-128605682D01*
X147400001Y-128605682D01*
X147452254Y-128598802D01*
X147556762Y-128585044D01*
X147702841Y-128524536D01*
X147828282Y-128428282D01*
X147924536Y-128302841D01*
X147985044Y-128156762D01*
X148005682Y-128000000D01*
X147985044Y-127843238D01*
X147924536Y-127697159D01*
X147828282Y-127571718D01*
X147702841Y-127475464D01*
X147556762Y-127414956D01*
X147556760Y-127414955D01*
X147400001Y-127394318D01*
X147399999Y-127394318D01*
X147243239Y-127414955D01*
X147243237Y-127414956D01*
X147097160Y-127475463D01*
X146971718Y-127571718D01*
X146875463Y-127697160D01*
X146814956Y-127843237D01*
X146814955Y-127843239D01*
X146794318Y-127999998D01*
X144725500Y-127999998D01*
X144725500Y-127309756D01*
X144727027Y-127290359D01*
X144735862Y-127234575D01*
X144747848Y-127197680D01*
X144769011Y-127156146D01*
X144791810Y-127124767D01*
X144824767Y-127091810D01*
X144856146Y-127069011D01*
X144897680Y-127047848D01*
X144934566Y-127035863D01*
X144990370Y-127027025D01*
X145009757Y-127025500D01*
X151690243Y-127025500D01*
X151709640Y-127027027D01*
X151737135Y-127031381D01*
X151765425Y-127035862D01*
X151802320Y-127047849D01*
X151843850Y-127069010D01*
X151875235Y-127091813D01*
X151908186Y-127124764D01*
X151930990Y-127156150D01*
X151952149Y-127197677D01*
X151964137Y-127234573D01*
X151972973Y-127290357D01*
X151974500Y-127309756D01*
X151974500Y-130251555D01*
X152006362Y-130349614D01*
X152006364Y-130349618D01*
X152066967Y-130433031D01*
X152066968Y-130433032D01*
X152139799Y-130485947D01*
X152150384Y-130493637D01*
X152248446Y-130525500D01*
X152289438Y-130525500D01*
X152690243Y-130525500D01*
X152709640Y-130527027D01*
X152737135Y-130531381D01*
X152765425Y-130535862D01*
X152802320Y-130547849D01*
X152843850Y-130569010D01*
X152875235Y-130591813D01*
X152908186Y-130624764D01*
X152930990Y-130656150D01*
X152952149Y-130697677D01*
X152964137Y-130734573D01*
X152972973Y-130790357D01*
X152974500Y-130809756D01*
X152974500Y-135827303D01*
X152954815Y-135894342D01*
X152902011Y-135940097D01*
X152832853Y-135950041D01*
X152769297Y-135921016D01*
X152752125Y-135902791D01*
X152745642Y-135894342D01*
X152728282Y-135871718D01*
X152602841Y-135775464D01*
X152456762Y-135714956D01*
X152456760Y-135714955D01*
X152300001Y-135694318D01*
X152299999Y-135694318D01*
X152143239Y-135714955D01*
X152143237Y-135714956D01*
X151997160Y-135775463D01*
X151871718Y-135871718D01*
X151775463Y-135997160D01*
X151714956Y-136143237D01*
X151714955Y-136143239D01*
X151694318Y-136299998D01*
X151694318Y-136300001D01*
X151714955Y-136456760D01*
X151714956Y-136456762D01*
X151775464Y-136602841D01*
X151871718Y-136728282D01*
X151997159Y-136824536D01*
X152143238Y-136885044D01*
X152221619Y-136895363D01*
X152299999Y-136905682D01*
X152300000Y-136905682D01*
X152300001Y-136905682D01*
X152352254Y-136898802D01*
X152456762Y-136885044D01*
X152602841Y-136824536D01*
X152728282Y-136728282D01*
X152752124Y-136697209D01*
X152808552Y-136656007D01*
X152878298Y-136651852D01*
X152939218Y-136686064D01*
X152971971Y-136747781D01*
X152974500Y-136772696D01*
X152974500Y-138951555D01*
X152985310Y-138984825D01*
X153006363Y-139049616D01*
X153066968Y-139133032D01*
X153150384Y-139193637D01*
X153248446Y-139225500D01*
X153289438Y-139225500D01*
X154090243Y-139225500D01*
X154109640Y-139227027D01*
X154137135Y-139231381D01*
X154165425Y-139235862D01*
X154202320Y-139247849D01*
X154243850Y-139269010D01*
X154275235Y-139291813D01*
X154308186Y-139324764D01*
X154330990Y-139356150D01*
X154352149Y-139397677D01*
X154364137Y-139434573D01*
X154372973Y-139490357D01*
X154374500Y-139509756D01*
X154374500Y-156690243D01*
X154372973Y-156709642D01*
X154364137Y-156765426D01*
X154352149Y-156802322D01*
X154330990Y-156843849D01*
X154308186Y-156875235D01*
X154275235Y-156908186D01*
X154243849Y-156930990D01*
X154202322Y-156952149D01*
X154165426Y-156964137D01*
X154122164Y-156970989D01*
X154109640Y-156972973D01*
X154090243Y-156974500D01*
X125445079Y-156974500D01*
X125445058Y-156974496D01*
X125421885Y-156974498D01*
X125402488Y-156972973D01*
X125346697Y-156964142D01*
X125309797Y-156952156D01*
X125268266Y-156930999D01*
X125236881Y-156908200D01*
X125203916Y-156875240D01*
X125181116Y-156843861D01*
X125159952Y-156802326D01*
X125147964Y-156765431D01*
X125139159Y-156709842D01*
X125137632Y-156690443D01*
X125137632Y-154399998D01*
X131394318Y-154399998D01*
X131394318Y-154400001D01*
X131414955Y-154556760D01*
X131414956Y-154556762D01*
X131475464Y-154702841D01*
X131571718Y-154828282D01*
X131697159Y-154924536D01*
X131843238Y-154985044D01*
X131921619Y-154995363D01*
X131999999Y-155005682D01*
X132000000Y-155005682D01*
X132000001Y-155005682D01*
X132052254Y-154998802D01*
X132156762Y-154985044D01*
X132302841Y-154924536D01*
X132428282Y-154828282D01*
X132524536Y-154702841D01*
X132585044Y-154556762D01*
X132605682Y-154400000D01*
X132585044Y-154243238D01*
X132524536Y-154097159D01*
X132449982Y-153999998D01*
X139694318Y-153999998D01*
X139694318Y-154000001D01*
X139714955Y-154156760D01*
X139714956Y-154156762D01*
X139750775Y-154243238D01*
X139775464Y-154302841D01*
X139871718Y-154428282D01*
X139997159Y-154524536D01*
X140143238Y-154585044D01*
X140221619Y-154595363D01*
X140299999Y-154605682D01*
X140300000Y-154605682D01*
X140300001Y-154605682D01*
X140352254Y-154598802D01*
X140456762Y-154585044D01*
X140602841Y-154524536D01*
X140728282Y-154428282D01*
X140824536Y-154302841D01*
X140885044Y-154156762D01*
X140905682Y-154000000D01*
X140904291Y-153989438D01*
X140885044Y-153843239D01*
X140885044Y-153843238D01*
X140824536Y-153697159D01*
X140728282Y-153571718D01*
X140602841Y-153475464D01*
X140545112Y-153451552D01*
X140456762Y-153414956D01*
X140456760Y-153414955D01*
X140300001Y-153394318D01*
X140299999Y-153394318D01*
X140143239Y-153414955D01*
X140143237Y-153414956D01*
X139997160Y-153475463D01*
X139871718Y-153571718D01*
X139775463Y-153697160D01*
X139714956Y-153843237D01*
X139714955Y-153843239D01*
X139694318Y-153999998D01*
X132449982Y-153999998D01*
X132428282Y-153971718D01*
X132302841Y-153875464D01*
X132156762Y-153814956D01*
X132156760Y-153814955D01*
X132000001Y-153794318D01*
X131999999Y-153794318D01*
X131843239Y-153814955D01*
X131843237Y-153814956D01*
X131697160Y-153875463D01*
X131571718Y-153971718D01*
X131475463Y-154097160D01*
X131414956Y-154243237D01*
X131414955Y-154243239D01*
X131394318Y-154399998D01*
X125137632Y-154399998D01*
X125137632Y-154009758D01*
X125139159Y-153990359D01*
X125142112Y-153971718D01*
X125147994Y-153934577D01*
X125159984Y-153897680D01*
X125181141Y-153856159D01*
X125203943Y-153824778D01*
X125236901Y-153791823D01*
X125268286Y-153769024D01*
X125309808Y-153747872D01*
X125346705Y-153735887D01*
X125386820Y-153729537D01*
X125402691Y-153727026D01*
X125422092Y-153725501D01*
X125445058Y-153725503D01*
X125445079Y-153725500D01*
X126751553Y-153725500D01*
X126751554Y-153725500D01*
X126849616Y-153693637D01*
X126933032Y-153633032D01*
X126993637Y-153549616D01*
X127025500Y-153451554D01*
X127025500Y-153400000D01*
X127025500Y-153391715D01*
X127025500Y-149571852D01*
X140266172Y-149571852D01*
X140266172Y-149571855D01*
X140286809Y-149728614D01*
X140286810Y-149728616D01*
X140347318Y-149874695D01*
X140443572Y-150000136D01*
X140569013Y-150096390D01*
X140715092Y-150156898D01*
X140793473Y-150167217D01*
X140871853Y-150177536D01*
X140871854Y-150177536D01*
X140871855Y-150177536D01*
X140924108Y-150170656D01*
X141028616Y-150156898D01*
X141174695Y-150096390D01*
X141300136Y-150000136D01*
X141396390Y-149874695D01*
X141456898Y-149728616D01*
X141477536Y-149571854D01*
X141456898Y-149415092D01*
X141396390Y-149269013D01*
X141300136Y-149143572D01*
X141174695Y-149047318D01*
X141028616Y-148986810D01*
X141028614Y-148986809D01*
X140871855Y-148966172D01*
X140871853Y-148966172D01*
X140715093Y-148986809D01*
X140715091Y-148986810D01*
X140569014Y-149047317D01*
X140443572Y-149143572D01*
X140347317Y-149269014D01*
X140286810Y-149415091D01*
X140286809Y-149415093D01*
X140266172Y-149571852D01*
X127025500Y-149571852D01*
X127025500Y-146999998D01*
X130394318Y-146999998D01*
X130394318Y-147000001D01*
X130414955Y-147156760D01*
X130414956Y-147156762D01*
X130474287Y-147300001D01*
X130475464Y-147302841D01*
X130571718Y-147428282D01*
X130697159Y-147524536D01*
X130843238Y-147585044D01*
X130921619Y-147595363D01*
X130999999Y-147605682D01*
X131000000Y-147605682D01*
X131000001Y-147605682D01*
X131052254Y-147598802D01*
X131156762Y-147585044D01*
X131302841Y-147524536D01*
X131428282Y-147428282D01*
X131524536Y-147302841D01*
X131585044Y-147156762D01*
X131605682Y-147000000D01*
X131585044Y-146843238D01*
X131524536Y-146697159D01*
X131428282Y-146571718D01*
X131302841Y-146475464D01*
X131156762Y-146414956D01*
X131156760Y-146414955D01*
X131000001Y-146394318D01*
X130999999Y-146394318D01*
X130843239Y-146414955D01*
X130843237Y-146414956D01*
X130697160Y-146475463D01*
X130571718Y-146571718D01*
X130475463Y-146697160D01*
X130414956Y-146843237D01*
X130414955Y-146843239D01*
X130394318Y-146999998D01*
X127025500Y-146999998D01*
X127025500Y-145999998D01*
X141294318Y-145999998D01*
X141294318Y-146000001D01*
X141314955Y-146156760D01*
X141314956Y-146156762D01*
X141375464Y-146302841D01*
X141471718Y-146428282D01*
X141597159Y-146524536D01*
X141743238Y-146585044D01*
X141821619Y-146595363D01*
X141899999Y-146605682D01*
X141900000Y-146605682D01*
X141900001Y-146605682D01*
X141952254Y-146598802D01*
X142056762Y-146585044D01*
X142085172Y-146573276D01*
X146367596Y-146573276D01*
X146367596Y-146573279D01*
X146388233Y-146730038D01*
X146388234Y-146730040D01*
X146448742Y-146876119D01*
X146544996Y-147001560D01*
X146670437Y-147097814D01*
X146816516Y-147158322D01*
X146816521Y-147158322D01*
X146824366Y-147160425D01*
X146823844Y-147162372D01*
X146877808Y-147186245D01*
X146916280Y-147244569D01*
X146920666Y-147297103D01*
X146904928Y-147416650D01*
X146904928Y-147416653D01*
X146925565Y-147573412D01*
X146925566Y-147573414D01*
X146986074Y-147719493D01*
X147082328Y-147844934D01*
X147207769Y-147941188D01*
X147353848Y-148001696D01*
X147432229Y-148012015D01*
X147510609Y-148022334D01*
X147510610Y-148022334D01*
X147510611Y-148022334D01*
X147562864Y-148015454D01*
X147667372Y-148001696D01*
X147813451Y-147941188D01*
X147938892Y-147844934D01*
X148035146Y-147719493D01*
X148095654Y-147573414D01*
X148116292Y-147416652D01*
X148100934Y-147299998D01*
X148694318Y-147299998D01*
X148694318Y-147300001D01*
X148714955Y-147456760D01*
X148714956Y-147456762D01*
X148775464Y-147602841D01*
X148871718Y-147728282D01*
X148997159Y-147824536D01*
X149143238Y-147885044D01*
X149221619Y-147895363D01*
X149299999Y-147905682D01*
X149300000Y-147905682D01*
X149300001Y-147905682D01*
X149352254Y-147898802D01*
X149456762Y-147885044D01*
X149602841Y-147824536D01*
X149728282Y-147728282D01*
X149824536Y-147602841D01*
X149885044Y-147456762D01*
X149905682Y-147300000D01*
X149900401Y-147259890D01*
X149885044Y-147143239D01*
X149885044Y-147143238D01*
X149824536Y-146997159D01*
X149728282Y-146871718D01*
X149602841Y-146775464D01*
X149456762Y-146714956D01*
X149456760Y-146714955D01*
X149300001Y-146694318D01*
X149299999Y-146694318D01*
X149143239Y-146714955D01*
X149143237Y-146714956D01*
X148997160Y-146775463D01*
X148871718Y-146871718D01*
X148775463Y-146997160D01*
X148714956Y-147143237D01*
X148714955Y-147143239D01*
X148694318Y-147299998D01*
X148100934Y-147299998D01*
X148095654Y-147259890D01*
X148035146Y-147113811D01*
X147938892Y-146988370D01*
X147813451Y-146892116D01*
X147667372Y-146831608D01*
X147659522Y-146829505D01*
X147660042Y-146827560D01*
X147606064Y-146803672D01*
X147567602Y-146745341D01*
X147563221Y-146692825D01*
X147578960Y-146573277D01*
X147578960Y-146573276D01*
X147558322Y-146416517D01*
X147558322Y-146416516D01*
X147497814Y-146270437D01*
X147401560Y-146144996D01*
X147276119Y-146048742D01*
X147130040Y-145988234D01*
X147130038Y-145988233D01*
X146973279Y-145967596D01*
X146973277Y-145967596D01*
X146816517Y-145988233D01*
X146816515Y-145988234D01*
X146670438Y-146048741D01*
X146544996Y-146144996D01*
X146448741Y-146270438D01*
X146388234Y-146416515D01*
X146388233Y-146416517D01*
X146367596Y-146573276D01*
X142085172Y-146573276D01*
X142202841Y-146524536D01*
X142328282Y-146428282D01*
X142424536Y-146302841D01*
X142485044Y-146156762D01*
X142505682Y-146000000D01*
X142485044Y-145843238D01*
X142424536Y-145697159D01*
X142328282Y-145571718D01*
X142202841Y-145475464D01*
X142056762Y-145414956D01*
X142056760Y-145414955D01*
X141900001Y-145394318D01*
X141899999Y-145394318D01*
X141743239Y-145414955D01*
X141743237Y-145414956D01*
X141597160Y-145475463D01*
X141471718Y-145571718D01*
X141375463Y-145697160D01*
X141314956Y-145843237D01*
X141314955Y-145843239D01*
X141294318Y-145999998D01*
X127025500Y-145999998D01*
X127025500Y-141646530D01*
X129224500Y-141646530D01*
X129224500Y-141853469D01*
X129264868Y-142056412D01*
X129264870Y-142056420D01*
X129344058Y-142247596D01*
X129459024Y-142419657D01*
X129605342Y-142565975D01*
X129605345Y-142565977D01*
X129777402Y-142680941D01*
X129968580Y-142760130D01*
X130171530Y-142800499D01*
X130171534Y-142800500D01*
X130171535Y-142800500D01*
X130378466Y-142800500D01*
X130378467Y-142800499D01*
X130581420Y-142760130D01*
X130772598Y-142680941D01*
X130944655Y-142565977D01*
X131090977Y-142419655D01*
X131205941Y-142247598D01*
X131226225Y-142198629D01*
X139392948Y-142198629D01*
X139392948Y-142198632D01*
X139413585Y-142355391D01*
X139413586Y-142355393D01*
X139474094Y-142501472D01*
X139570348Y-142626913D01*
X139695789Y-142723167D01*
X139841868Y-142783675D01*
X139920249Y-142793994D01*
X139998629Y-142804313D01*
X139998630Y-142804313D01*
X139998631Y-142804313D01*
X140050884Y-142797433D01*
X140155392Y-142783675D01*
X140301471Y-142723167D01*
X140426912Y-142626913D01*
X140523166Y-142501472D01*
X140583674Y-142355393D01*
X140604312Y-142198631D01*
X140583674Y-142041869D01*
X140523166Y-141895790D01*
X140426912Y-141770349D01*
X140301471Y-141674095D01*
X140294380Y-141671158D01*
X140155392Y-141613587D01*
X140155390Y-141613586D01*
X139998631Y-141592949D01*
X139998629Y-141592949D01*
X139841869Y-141613586D01*
X139841867Y-141613587D01*
X139695790Y-141674094D01*
X139570348Y-141770349D01*
X139474093Y-141895791D01*
X139413586Y-142041868D01*
X139413585Y-142041870D01*
X139392948Y-142198629D01*
X131226225Y-142198629D01*
X131285130Y-142056420D01*
X131325500Y-141853465D01*
X131325500Y-141646535D01*
X131285130Y-141443580D01*
X131276130Y-141421852D01*
X148972464Y-141421852D01*
X148972464Y-141421855D01*
X148993101Y-141578614D01*
X148993102Y-141578616D01*
X149053610Y-141724695D01*
X149149864Y-141850136D01*
X149275305Y-141946390D01*
X149421384Y-142006898D01*
X149499765Y-142017217D01*
X149578145Y-142027536D01*
X149578146Y-142027536D01*
X149578147Y-142027536D01*
X149630400Y-142020656D01*
X149734908Y-142006898D01*
X149880987Y-141946390D01*
X150006428Y-141850136D01*
X150102682Y-141724695D01*
X150163190Y-141578616D01*
X150183828Y-141421854D01*
X150183828Y-141421852D01*
X150184889Y-141413796D01*
X150188358Y-141414252D01*
X150203513Y-141362643D01*
X150256317Y-141316888D01*
X150292247Y-141309071D01*
X150291941Y-141306743D01*
X150300000Y-141305682D01*
X150396526Y-141292974D01*
X150465561Y-141303739D01*
X150517817Y-141350119D01*
X150536702Y-141417388D01*
X150527273Y-141463364D01*
X150505263Y-141516502D01*
X150505261Y-141516510D01*
X150474500Y-141671153D01*
X150474500Y-141828846D01*
X150505261Y-141983489D01*
X150505264Y-141983501D01*
X150565602Y-142129172D01*
X150565609Y-142129185D01*
X150653210Y-142260288D01*
X150653213Y-142260292D01*
X150764707Y-142371786D01*
X150764711Y-142371789D01*
X150895814Y-142459390D01*
X150895827Y-142459397D01*
X150997402Y-142501470D01*
X151041503Y-142519737D01*
X151196153Y-142550499D01*
X151196156Y-142550500D01*
X151196158Y-142550500D01*
X151353844Y-142550500D01*
X151353845Y-142550499D01*
X151508497Y-142519737D01*
X151654179Y-142459394D01*
X151785289Y-142371789D01*
X151896789Y-142260289D01*
X151984394Y-142129179D01*
X152044737Y-141983497D01*
X152075500Y-141828842D01*
X152075500Y-141671158D01*
X152075500Y-141671155D01*
X152075499Y-141671153D01*
X152057092Y-141578616D01*
X152044737Y-141516503D01*
X152044735Y-141516498D01*
X151984397Y-141370827D01*
X151984390Y-141370814D01*
X151896789Y-141239711D01*
X151896786Y-141239707D01*
X151785292Y-141128213D01*
X151785288Y-141128210D01*
X151651025Y-141038498D01*
X151606220Y-140984886D01*
X151597513Y-140915561D01*
X151627668Y-140852533D01*
X151644427Y-140837022D01*
X151676967Y-140812054D01*
X151773221Y-140686613D01*
X151833729Y-140540534D01*
X151847487Y-140436026D01*
X151854367Y-140383773D01*
X151854367Y-140383770D01*
X151833729Y-140227011D01*
X151833729Y-140227010D01*
X151773221Y-140080931D01*
X151676967Y-139955490D01*
X151551526Y-139859236D01*
X151405447Y-139798728D01*
X151405445Y-139798727D01*
X151248686Y-139778090D01*
X151248684Y-139778090D01*
X151091924Y-139798727D01*
X151091922Y-139798728D01*
X150945845Y-139859235D01*
X150820401Y-139955491D01*
X150724149Y-140080930D01*
X150724144Y-140080939D01*
X150720410Y-140089953D01*
X150676566Y-140144354D01*
X150610271Y-140166415D01*
X150558400Y-140157055D01*
X150456765Y-140114957D01*
X150456760Y-140114955D01*
X150300001Y-140094318D01*
X150299999Y-140094318D01*
X150143239Y-140114955D01*
X150143237Y-140114956D01*
X149997160Y-140175463D01*
X149871718Y-140271718D01*
X149775463Y-140397160D01*
X149714956Y-140543237D01*
X149714955Y-140543239D01*
X149693257Y-140708058D01*
X149689787Y-140707601D01*
X149674633Y-140759211D01*
X149621829Y-140804966D01*
X149585897Y-140812782D01*
X149586204Y-140815111D01*
X149421385Y-140836809D01*
X149421383Y-140836810D01*
X149275306Y-140897317D01*
X149149864Y-140993572D01*
X149053609Y-141119014D01*
X148993102Y-141265091D01*
X148993101Y-141265093D01*
X148972464Y-141421852D01*
X131276130Y-141421852D01*
X131205941Y-141252402D01*
X131090977Y-141080345D01*
X131090975Y-141080342D01*
X130944657Y-140934024D01*
X130822696Y-140852533D01*
X130772598Y-140819059D01*
X130765628Y-140816172D01*
X130726581Y-140799998D01*
X136794318Y-140799998D01*
X136794318Y-140800001D01*
X136814955Y-140956760D01*
X136814956Y-140956762D01*
X136866144Y-141080342D01*
X136875464Y-141102841D01*
X136971718Y-141228282D01*
X137097159Y-141324536D01*
X137243238Y-141385044D01*
X137321619Y-141395363D01*
X137399999Y-141405682D01*
X137400000Y-141405682D01*
X137400001Y-141405682D01*
X137452254Y-141398802D01*
X137556762Y-141385044D01*
X137702841Y-141324536D01*
X137828282Y-141228282D01*
X137924536Y-141102841D01*
X137985044Y-140956762D01*
X138005682Y-140800000D01*
X137985044Y-140643238D01*
X137924536Y-140497159D01*
X137828282Y-140371718D01*
X137702841Y-140275464D01*
X137693797Y-140271718D01*
X137556762Y-140214956D01*
X137556760Y-140214955D01*
X137400001Y-140194318D01*
X137399999Y-140194318D01*
X137243239Y-140214955D01*
X137243237Y-140214956D01*
X137097160Y-140275463D01*
X136971718Y-140371718D01*
X136875463Y-140497160D01*
X136814956Y-140643237D01*
X136814955Y-140643239D01*
X136794318Y-140799998D01*
X130726581Y-140799998D01*
X130581420Y-140739870D01*
X130581412Y-140739868D01*
X130378469Y-140699500D01*
X130378465Y-140699500D01*
X130171535Y-140699500D01*
X130171530Y-140699500D01*
X129968587Y-140739868D01*
X129968579Y-140739870D01*
X129777403Y-140819058D01*
X129605342Y-140934024D01*
X129459024Y-141080342D01*
X129344058Y-141252403D01*
X129264870Y-141443579D01*
X129264868Y-141443587D01*
X129224500Y-141646530D01*
X127025500Y-141646530D01*
X127025500Y-138299998D01*
X144594318Y-138299998D01*
X144594318Y-138300001D01*
X144614955Y-138456760D01*
X144614956Y-138456762D01*
X144675464Y-138602841D01*
X144771718Y-138728282D01*
X144897159Y-138824536D01*
X145043238Y-138885044D01*
X145093910Y-138891715D01*
X145199999Y-138905682D01*
X145200000Y-138905682D01*
X145200001Y-138905682D01*
X145252254Y-138898802D01*
X145356762Y-138885044D01*
X145502841Y-138824536D01*
X145628282Y-138728282D01*
X145724536Y-138602841D01*
X145785044Y-138456762D01*
X145805682Y-138300000D01*
X145785044Y-138143238D01*
X145724536Y-137997159D01*
X145628282Y-137871718D01*
X145502841Y-137775464D01*
X145356762Y-137714956D01*
X145356760Y-137714955D01*
X145200001Y-137694318D01*
X145199999Y-137694318D01*
X145043239Y-137714955D01*
X145043237Y-137714956D01*
X144897160Y-137775463D01*
X144771718Y-137871718D01*
X144675463Y-137997160D01*
X144614956Y-138143237D01*
X144614955Y-138143239D01*
X144594318Y-138299998D01*
X127025500Y-138299998D01*
X127025500Y-136668198D01*
X142482408Y-136668198D01*
X142482408Y-136668201D01*
X142503045Y-136824960D01*
X142503046Y-136824962D01*
X142563554Y-136971041D01*
X142659808Y-137096482D01*
X142785249Y-137192736D01*
X142931328Y-137253244D01*
X143009709Y-137263563D01*
X143088089Y-137273882D01*
X143088090Y-137273882D01*
X143088091Y-137273882D01*
X143140344Y-137267002D01*
X143244852Y-137253244D01*
X143390931Y-137192736D01*
X143516372Y-137096482D01*
X143612626Y-136971041D01*
X143673134Y-136824962D01*
X143693772Y-136668200D01*
X143693772Y-136668198D01*
X147831789Y-136668198D01*
X147831789Y-136668201D01*
X147852426Y-136824960D01*
X147852427Y-136824962D01*
X147912935Y-136971041D01*
X148009189Y-137096482D01*
X148134630Y-137192736D01*
X148280709Y-137253244D01*
X148359090Y-137263563D01*
X148437470Y-137273882D01*
X148437471Y-137273882D01*
X148437472Y-137273882D01*
X148489725Y-137267002D01*
X148594233Y-137253244D01*
X148740312Y-137192736D01*
X148865753Y-137096482D01*
X148962007Y-136971041D01*
X149022515Y-136824962D01*
X149043153Y-136668200D01*
X149022515Y-136511438D01*
X148962007Y-136365359D01*
X148865753Y-136239918D01*
X148740312Y-136143664D01*
X148739281Y-136143237D01*
X148594233Y-136083156D01*
X148594231Y-136083155D01*
X148437472Y-136062518D01*
X148437470Y-136062518D01*
X148280710Y-136083155D01*
X148280708Y-136083156D01*
X148134631Y-136143663D01*
X148009189Y-136239918D01*
X147912934Y-136365360D01*
X147852427Y-136511437D01*
X147852426Y-136511439D01*
X147831789Y-136668198D01*
X143693772Y-136668198D01*
X143673134Y-136511438D01*
X143612626Y-136365359D01*
X143516372Y-136239918D01*
X143390931Y-136143664D01*
X143389900Y-136143237D01*
X143244852Y-136083156D01*
X143244850Y-136083155D01*
X143088091Y-136062518D01*
X143088089Y-136062518D01*
X142931329Y-136083155D01*
X142931327Y-136083156D01*
X142785250Y-136143663D01*
X142659808Y-136239918D01*
X142563553Y-136365360D01*
X142503046Y-136511437D01*
X142503045Y-136511439D01*
X142482408Y-136668198D01*
X127025500Y-136668198D01*
X127025500Y-134899998D01*
X136594318Y-134899998D01*
X136594318Y-134900001D01*
X136614955Y-135056760D01*
X136614956Y-135056762D01*
X136656376Y-135156760D01*
X136675464Y-135202841D01*
X136771718Y-135328282D01*
X136897159Y-135424536D01*
X137043238Y-135485044D01*
X137121619Y-135495363D01*
X137199999Y-135505682D01*
X137200000Y-135505682D01*
X137200001Y-135505682D01*
X137252254Y-135498802D01*
X137356762Y-135485044D01*
X137502841Y-135424536D01*
X137628282Y-135328282D01*
X137724536Y-135202841D01*
X137785044Y-135056762D01*
X137805682Y-134900000D01*
X137785044Y-134743238D01*
X137724536Y-134597159D01*
X137628282Y-134471718D01*
X137502841Y-134375464D01*
X137356762Y-134314956D01*
X137356760Y-134314955D01*
X137200001Y-134294318D01*
X137199999Y-134294318D01*
X137043239Y-134314955D01*
X137043237Y-134314956D01*
X136897160Y-134375463D01*
X136771718Y-134471718D01*
X136675463Y-134597160D01*
X136614956Y-134743237D01*
X136614955Y-134743239D01*
X136594318Y-134899998D01*
X127025500Y-134899998D01*
X127025500Y-133999998D01*
X149894318Y-133999998D01*
X149894318Y-134000001D01*
X149914955Y-134156760D01*
X149914956Y-134156762D01*
X149975464Y-134302842D01*
X150068826Y-134424514D01*
X150094020Y-134489683D01*
X150079981Y-134558128D01*
X150068826Y-134575486D01*
X149975464Y-134697157D01*
X149914956Y-134843237D01*
X149914955Y-134843239D01*
X149894318Y-134999998D01*
X149894318Y-135000001D01*
X149914955Y-135156760D01*
X149914956Y-135156762D01*
X149975464Y-135302841D01*
X150071718Y-135428282D01*
X150197159Y-135524536D01*
X150343238Y-135585044D01*
X150421619Y-135595363D01*
X150499999Y-135605682D01*
X150500000Y-135605682D01*
X150500001Y-135605682D01*
X150552254Y-135598802D01*
X150656762Y-135585044D01*
X150802841Y-135524536D01*
X150928282Y-135428282D01*
X151024536Y-135302841D01*
X151085044Y-135156762D01*
X151105682Y-135000000D01*
X151085044Y-134843238D01*
X151024536Y-134697159D01*
X150931171Y-134575484D01*
X150905979Y-134510317D01*
X150920017Y-134441873D01*
X150931167Y-134424521D01*
X151024536Y-134302841D01*
X151085044Y-134156762D01*
X151105682Y-134000000D01*
X151105681Y-133999997D01*
X151106716Y-133992140D01*
X151134982Y-133928244D01*
X151193306Y-133889772D01*
X151245837Y-133885386D01*
X151400000Y-133905682D01*
X151400001Y-133905682D01*
X151452254Y-133898802D01*
X151556762Y-133885044D01*
X151702841Y-133824536D01*
X151828282Y-133728282D01*
X151924536Y-133602841D01*
X151985044Y-133456762D01*
X152005682Y-133300000D01*
X152004581Y-133291639D01*
X151985044Y-133143239D01*
X151985044Y-133143238D01*
X151924536Y-132997159D01*
X151828282Y-132871718D01*
X151702841Y-132775464D01*
X151556762Y-132714956D01*
X151556760Y-132714955D01*
X151400001Y-132694318D01*
X151399999Y-132694318D01*
X151243239Y-132714955D01*
X151243237Y-132714956D01*
X151097160Y-132775463D01*
X150971718Y-132871718D01*
X150875463Y-132997160D01*
X150814956Y-133143237D01*
X150814956Y-133143238D01*
X150793283Y-133307860D01*
X150765016Y-133371756D01*
X150706692Y-133410227D01*
X150654159Y-133414613D01*
X150500001Y-133394318D01*
X150499999Y-133394318D01*
X150343239Y-133414955D01*
X150343237Y-133414956D01*
X150197160Y-133475463D01*
X150071718Y-133571718D01*
X149975463Y-133697160D01*
X149914956Y-133843237D01*
X149914955Y-133843239D01*
X149894318Y-133999998D01*
X127025500Y-133999998D01*
X127025500Y-132988798D01*
X136926827Y-132988798D01*
X136926827Y-132988801D01*
X136947464Y-133145560D01*
X136947465Y-133145562D01*
X137007973Y-133291641D01*
X137104227Y-133417082D01*
X137229668Y-133513336D01*
X137375747Y-133573844D01*
X137454128Y-133584163D01*
X137532508Y-133594482D01*
X137532509Y-133594482D01*
X137532510Y-133594482D01*
X137584763Y-133587602D01*
X137689271Y-133573844D01*
X137835350Y-133513336D01*
X137960791Y-133417082D01*
X138057045Y-133291641D01*
X138117553Y-133145562D01*
X138131311Y-133041054D01*
X138138191Y-132988801D01*
X138138191Y-132988798D01*
X138117553Y-132832039D01*
X138117553Y-132832038D01*
X138075671Y-132730927D01*
X138068203Y-132661462D01*
X138099478Y-132598983D01*
X138159566Y-132563330D01*
X138229391Y-132565823D01*
X138237684Y-132568916D01*
X138315730Y-132601244D01*
X138394111Y-132611563D01*
X138472491Y-132621882D01*
X138472492Y-132621882D01*
X138472493Y-132621882D01*
X138524746Y-132615002D01*
X138629254Y-132601244D01*
X138775333Y-132540736D01*
X138900774Y-132444482D01*
X138997028Y-132319041D01*
X139057536Y-132172962D01*
X139078174Y-132016200D01*
X139057536Y-131859438D01*
X138997028Y-131713359D01*
X138986776Y-131699998D01*
X147494318Y-131699998D01*
X147494318Y-131700001D01*
X147514955Y-131856760D01*
X147514956Y-131856762D01*
X147575464Y-132002841D01*
X147671718Y-132128282D01*
X147797159Y-132224536D01*
X147943238Y-132285044D01*
X148021619Y-132295363D01*
X148099999Y-132305682D01*
X148100000Y-132305682D01*
X148100001Y-132305682D01*
X148152254Y-132298802D01*
X148256762Y-132285044D01*
X148402841Y-132224536D01*
X148528282Y-132128282D01*
X148624536Y-132002841D01*
X148685044Y-131856762D01*
X148705682Y-131700000D01*
X148685044Y-131543238D01*
X148624536Y-131397159D01*
X148528282Y-131271718D01*
X148402841Y-131175464D01*
X148393797Y-131171718D01*
X148256762Y-131114956D01*
X148256760Y-131114955D01*
X148100001Y-131094318D01*
X148099999Y-131094318D01*
X147943239Y-131114955D01*
X147943237Y-131114956D01*
X147797160Y-131175463D01*
X147671718Y-131271718D01*
X147575463Y-131397160D01*
X147514956Y-131543237D01*
X147514955Y-131543239D01*
X147494318Y-131699998D01*
X138986776Y-131699998D01*
X138900774Y-131587918D01*
X138775333Y-131491664D01*
X138658422Y-131443238D01*
X138629254Y-131431156D01*
X138629252Y-131431155D01*
X138472493Y-131410518D01*
X138472491Y-131410518D01*
X138315731Y-131431155D01*
X138315729Y-131431156D01*
X138169652Y-131491663D01*
X138044210Y-131587918D01*
X137947955Y-131713360D01*
X137887448Y-131859437D01*
X137887447Y-131859439D01*
X137866810Y-132016198D01*
X137866810Y-132016201D01*
X137887447Y-132172960D01*
X137887448Y-132172962D01*
X137929328Y-132274068D01*
X137936797Y-132343537D01*
X137905522Y-132406017D01*
X137845433Y-132441669D01*
X137775608Y-132439175D01*
X137767315Y-132436082D01*
X137689274Y-132403757D01*
X137689269Y-132403755D01*
X137532510Y-132383118D01*
X137532508Y-132383118D01*
X137375748Y-132403755D01*
X137375746Y-132403756D01*
X137229669Y-132464263D01*
X137104227Y-132560518D01*
X137007972Y-132685960D01*
X136947465Y-132832037D01*
X136947464Y-132832039D01*
X136926827Y-132988798D01*
X127025500Y-132988798D01*
X127025500Y-131599998D01*
X132694318Y-131599998D01*
X132694318Y-131600001D01*
X132714955Y-131756760D01*
X132714956Y-131756762D01*
X132756376Y-131856760D01*
X132775464Y-131902841D01*
X132871718Y-132028282D01*
X132997159Y-132124536D01*
X133143238Y-132185044D01*
X133221619Y-132195363D01*
X133299999Y-132205682D01*
X133300000Y-132205682D01*
X133300001Y-132205682D01*
X133352254Y-132198802D01*
X133456762Y-132185044D01*
X133602841Y-132124536D01*
X133728282Y-132028282D01*
X133824536Y-131902841D01*
X133885044Y-131756762D01*
X133905682Y-131600000D01*
X133904091Y-131587918D01*
X133885044Y-131443239D01*
X133885043Y-131443237D01*
X133824536Y-131297159D01*
X133824534Y-131297157D01*
X133820474Y-131290124D01*
X133822672Y-131288854D01*
X133802060Y-131235525D01*
X133816103Y-131167081D01*
X133850142Y-131126842D01*
X133947031Y-131052498D01*
X133987316Y-130999998D01*
X138994318Y-130999998D01*
X138994318Y-131000001D01*
X139014955Y-131156760D01*
X139014956Y-131156762D01*
X139075464Y-131302841D01*
X139171718Y-131428282D01*
X139297159Y-131524536D01*
X139443238Y-131585044D01*
X139521619Y-131595363D01*
X139599999Y-131605682D01*
X139600000Y-131605682D01*
X139600001Y-131605682D01*
X139652254Y-131598802D01*
X139756762Y-131585044D01*
X139902841Y-131524536D01*
X140028282Y-131428282D01*
X140124536Y-131302841D01*
X140185044Y-131156762D01*
X140185044Y-131156760D01*
X140188154Y-131149253D01*
X140191386Y-131150591D01*
X140219247Y-131104697D01*
X140282039Y-131074054D01*
X140319002Y-131073361D01*
X140457761Y-131091629D01*
X140457762Y-131091629D01*
X140510015Y-131084749D01*
X140614523Y-131070991D01*
X140760602Y-131010483D01*
X140886043Y-130914229D01*
X140982297Y-130788788D01*
X141042805Y-130642709D01*
X141051561Y-130576198D01*
X141594318Y-130576198D01*
X141594318Y-130576201D01*
X141614955Y-130732960D01*
X141614956Y-130732962D01*
X141675464Y-130879041D01*
X141771718Y-131004482D01*
X141897159Y-131100736D01*
X142043238Y-131161244D01*
X142087575Y-131167081D01*
X142199999Y-131181882D01*
X142200000Y-131181882D01*
X142200001Y-131181882D01*
X142252254Y-131175002D01*
X142356762Y-131161244D01*
X142502841Y-131100736D01*
X142628282Y-131004482D01*
X142724536Y-130879041D01*
X142785044Y-130732962D01*
X142805682Y-130576200D01*
X142804735Y-130569009D01*
X142786834Y-130433032D01*
X142785044Y-130419438D01*
X142724536Y-130273359D01*
X142628282Y-130147918D01*
X142502841Y-130051664D01*
X142472680Y-130039171D01*
X142356762Y-129991156D01*
X142356760Y-129991155D01*
X142200001Y-129970518D01*
X142199999Y-129970518D01*
X142043239Y-129991155D01*
X142043237Y-129991156D01*
X141897160Y-130051663D01*
X141771718Y-130147918D01*
X141675463Y-130273360D01*
X141614956Y-130419437D01*
X141614955Y-130419439D01*
X141594318Y-130576198D01*
X141051561Y-130576198D01*
X141063443Y-130485947D01*
X141061836Y-130473743D01*
X141045495Y-130349616D01*
X141042805Y-130329185D01*
X140982297Y-130183106D01*
X140886043Y-130057665D01*
X140760602Y-129961411D01*
X140731141Y-129949208D01*
X140731134Y-129949205D01*
X148067658Y-129949205D01*
X148067658Y-129949208D01*
X148088295Y-130105967D01*
X148088296Y-130105969D01*
X148148598Y-130251552D01*
X148148804Y-130252048D01*
X148245058Y-130377489D01*
X148370499Y-130473743D01*
X148516578Y-130534251D01*
X148552157Y-130538935D01*
X148673339Y-130554889D01*
X148673340Y-130554889D01*
X148673341Y-130554889D01*
X148726807Y-130547850D01*
X148830102Y-130534251D01*
X148976181Y-130473743D01*
X149101622Y-130377489D01*
X149197876Y-130252048D01*
X149258384Y-130105969D01*
X149277415Y-129961411D01*
X149279022Y-129949208D01*
X149279022Y-129949205D01*
X149258384Y-129792446D01*
X149258384Y-129792445D01*
X149197876Y-129646366D01*
X149101622Y-129520925D01*
X148976181Y-129424671D01*
X148902902Y-129394318D01*
X148830102Y-129364163D01*
X148830100Y-129364162D01*
X148673341Y-129343525D01*
X148673339Y-129343525D01*
X148516579Y-129364162D01*
X148516577Y-129364163D01*
X148370500Y-129424670D01*
X148245058Y-129520925D01*
X148148803Y-129646367D01*
X148088296Y-129792444D01*
X148088295Y-129792446D01*
X148067658Y-129949205D01*
X140731134Y-129949205D01*
X140614523Y-129900903D01*
X140614521Y-129900902D01*
X140457762Y-129880265D01*
X140457760Y-129880265D01*
X140301000Y-129900902D01*
X140300998Y-129900903D01*
X140154921Y-129961410D01*
X140029479Y-130057665D01*
X139933224Y-130183107D01*
X139892735Y-130280855D01*
X139872718Y-130329184D01*
X139869607Y-130336694D01*
X139866424Y-130335375D01*
X139838245Y-130381492D01*
X139775365Y-130411952D01*
X139738752Y-130412585D01*
X139600001Y-130394318D01*
X139599999Y-130394318D01*
X139443239Y-130414955D01*
X139443237Y-130414956D01*
X139297160Y-130475463D01*
X139171718Y-130571718D01*
X139075463Y-130697160D01*
X139014956Y-130843237D01*
X139014955Y-130843239D01*
X138994318Y-130999998D01*
X133987316Y-130999998D01*
X134043285Y-130927057D01*
X134103793Y-130780978D01*
X134113635Y-130706214D01*
X134141901Y-130642320D01*
X134200225Y-130603848D01*
X134252756Y-130599462D01*
X134300000Y-130605682D01*
X134456762Y-130585044D01*
X134602841Y-130524536D01*
X134728282Y-130428282D01*
X134824536Y-130302841D01*
X134885044Y-130156762D01*
X134905682Y-130000000D01*
X134885044Y-129843238D01*
X134824536Y-129697159D01*
X134728282Y-129571718D01*
X134602841Y-129475464D01*
X134456762Y-129414956D01*
X134456760Y-129414955D01*
X134300001Y-129394318D01*
X134299999Y-129394318D01*
X134143239Y-129414955D01*
X134143237Y-129414956D01*
X133997160Y-129475463D01*
X133871718Y-129571718D01*
X133775463Y-129697160D01*
X133714956Y-129843237D01*
X133714956Y-129843239D01*
X133705113Y-129918000D01*
X133676846Y-129981897D01*
X133618521Y-130020367D01*
X133565989Y-130024753D01*
X133518750Y-130018534D01*
X133518748Y-130018534D01*
X133361988Y-130039171D01*
X133361986Y-130039172D01*
X133215909Y-130099679D01*
X133090467Y-130195934D01*
X132994212Y-130321376D01*
X132933705Y-130467453D01*
X132933704Y-130467455D01*
X132913067Y-130624214D01*
X132913067Y-130624217D01*
X132933704Y-130780976D01*
X132933705Y-130780978D01*
X132988899Y-130914229D01*
X132994214Y-130927059D01*
X132998277Y-130934097D01*
X132996077Y-130935366D01*
X133016688Y-130988690D01*
X133002645Y-131057134D01*
X132968604Y-131097374D01*
X132871720Y-131171716D01*
X132871719Y-131171717D01*
X132871718Y-131171718D01*
X132868844Y-131175464D01*
X132775463Y-131297160D01*
X132714956Y-131443237D01*
X132714955Y-131443239D01*
X132694318Y-131599998D01*
X127025500Y-131599998D01*
X127025500Y-130809756D01*
X127027027Y-130790359D01*
X127035862Y-130734575D01*
X127047848Y-130697680D01*
X127069011Y-130656146D01*
X127091810Y-130624767D01*
X127124767Y-130591810D01*
X127156146Y-130569011D01*
X127197680Y-130547848D01*
X127234566Y-130535863D01*
X127290370Y-130527025D01*
X127309757Y-130525500D01*
X127751553Y-130525500D01*
X127751554Y-130525500D01*
X127849616Y-130493637D01*
X127933032Y-130433032D01*
X127993637Y-130349616D01*
X128025500Y-130251554D01*
X128025500Y-130200000D01*
X128025500Y-130191715D01*
X128025500Y-127309756D01*
X128027027Y-127290359D01*
X128035862Y-127234575D01*
X128047848Y-127197680D01*
X128069011Y-127156146D01*
X128091810Y-127124767D01*
X128124767Y-127091810D01*
X128156146Y-127069011D01*
X128197680Y-127047848D01*
X128234566Y-127035863D01*
X128290370Y-127027025D01*
X128309757Y-127025500D01*
X134990243Y-127025500D01*
X135009640Y-127027027D01*
G37*
%TD.AperFunction*%
%TD*%
M02*
