M48
; DRILL file {KiCad 8.0.7-1.fc41} date 2025-01-19T14:37:27-0600
; FORMAT={-:-/ absolute / metric / decimal}
; #@! TF.CreationDate,2025-01-19T14:37:27-06:00
; #@! TF.GenerationSoftware,Kicad,Pcbnew,8.0.7-1.fc41
; #@! TF.FileFunction,Plated,1,4,PTH
FMAT,2
METRIC
; #@! TA.AperFunction,Plated,PTH,ViaDrill
T1C0.400
%
G90
G05
T1
X131.0Y-147.0
X132.0Y-154.4
X133.3Y-131.6
X133.519Y-130.624
X134.3Y-130.0
X134.7Y-132.8
X137.2Y-134.9
X137.4Y-140.8
X137.533Y-132.989
X138.472Y-132.016
X139.0Y-139.5
X139.6Y-131.0
X139.999Y-142.199
X140.3Y-154.0
X140.458Y-130.486
X140.719Y-134.047
X140.872Y-149.572
X141.9Y-144.5
X141.9Y-146.0
X142.2Y-130.576
X143.088Y-136.668
X145.2Y-138.3
X146.0Y-130.8
X146.973Y-146.573
X147.4Y-128.0
X147.511Y-147.417
X148.1Y-131.7
X148.437Y-136.668
X148.673Y-129.949
X149.3Y-147.3
X149.31Y-146.007
X149.578Y-141.422
X150.3Y-140.7
X150.5Y-134.0
X150.5Y-135.0
X151.041Y-132.194
X151.249Y-140.384
X151.4Y-133.3
X152.3Y-136.3
M30
